<svg width="34" height="20" viewBox="0 0 34 20" fill="none" xmlns="http://www.w3.org/2000/svg">
    <path d="M33.6603 2.12991L31.957 0.426738C31.73 0.199299 31.4686 0.0859375 31.173 0.0859375C30.8781 0.0859375 30.6168 0.199299 30.3899 0.426738L17.0002 13.8157L3.6111 0.427096C3.38402 0.199657 3.12269 0.0862953 2.82748 0.0862953C2.53214 0.0862953 2.27081 0.199657 2.04385 0.427096L0.340801 2.13038C0.113362 2.35734 0 2.61867 0 2.91401C0 3.20911 0.11372 3.47044 0.340801 3.6974L16.2166 19.5735C16.4435 19.8006 16.705 19.9141 17.0002 19.9141C17.2954 19.9141 17.5564 19.8006 17.7832 19.5735L33.6603 3.6974C33.8872 3.47032 34 3.20899 34 2.91401C34 2.61867 33.8872 2.35734 33.6603 2.12991Z"
          fill="#4F4F4F"/>
</svg>
