<svg width="70" height="62" viewBox="0 0 70 62" fill="none" xmlns="http://www.w3.org/2000/svg">
<path d="M0.59005 34.4975L0.590066 34.4975L0.589748 34.4934C-0.0448177 26.3146 2.70335 18.564 8.27271 12.6421L8.27504 12.6397C13.7023 6.78943 21.4583 3.40457 29.4955 3.40457C38.3069 3.40457 46.5564 7.42249 52.0571 14.1927L52.4058 14.6218L52.7978 14.2319L65.9939 1.10755L65.9948 1.10659C66.8112 0.290247 68.0615 0.309802 68.789 1.09326L68.7953 1.10004L68.8019 1.10659C69.6182 1.92293 69.5987 3.17331 68.8152 3.90081L68.809 3.90661L68.8029 3.91263L31.5814 40.919L31.5804 40.92C31.1808 41.3196 30.7384 41.4907 30.141 41.4907C29.6452 41.4907 29.1178 41.2694 28.6885 40.9068L16.5116 28.5866L16.5096 28.5846C15.6932 27.7682 15.7128 26.5178 16.4962 25.7903C17.3341 25.0123 18.5913 24.9969 19.3038 25.7642L19.3101 25.771L19.3166 25.7775L29.8592 36.32L30.2113 36.6722L30.5649 36.3214L49.2115 17.8182L49.5271 17.505L49.253 17.155C44.4978 11.083 37.2534 7.49653 29.4955 7.49653C22.6131 7.49653 15.9561 10.4244 11.2021 15.4709L11.1997 15.4735C6.44269 20.5965 4.10217 27.2578 4.5407 34.3478L4.54104 34.3526C5.41922 46.6471 15.2964 56.5997 27.5947 57.4784C40.5466 58.4295 52.1791 49.1404 54.1577 36.4067C54.379 35.1503 54.4513 33.8297 54.4513 32.524C54.4513 31.4375 55.3749 30.5139 56.4614 30.5139C57.5479 30.5139 58.4715 31.4375 58.4715 32.524C58.4715 33.9981 58.3312 35.4783 58.1184 36.9688C55.9321 51.0632 43.5236 61.5 29.3521 61.5C28.6321 61.5 28.0107 61.4996 27.322 61.4308L27.322 61.4307L27.3118 61.4298C13.0705 60.3018 1.5769 48.7364 0.59005 34.4975Z" fill="#FB1D5C" stroke="white"/>
</svg>
