<svg width="46" height="62" viewBox="0 0 46 62" fill="none" xmlns="http://www.w3.org/2000/svg">
<path d="M40.5583 4.39167H35.0042L34.1 1.42083C33.7125 0.516667 32.9375 0 32.0333 0H13.4333C12.5292 0 11.7542 0.516667 11.4958 1.42083L10.5917 4.39167H5.0375C2.19583 4.39167 0 6.71667 0 9.42917V56.9625C0 59.8042 2.325 62 5.0375 62H40.5583C43.4 62 45.5958 59.675 45.5958 56.9625V9.42917C45.5958 6.71667 43.2708 4.39167 40.5583 4.39167ZM43.0125 56.9625C43.0125 58.3833 41.85 59.5458 40.4292 59.5458H4.90833C3.4875 59.5458 2.325 58.3833 2.325 56.9625V9.42917C2.325 8.00833 3.4875 6.84583 4.90833 6.84583H9.6875L9.42917 7.75C9.04167 9.04167 9.94583 10.3333 11.3667 10.3333H34.1C35.5208 10.3333 36.425 9.04167 36.0375 7.75L35.7792 6.84583H40.5583C41.9792 6.84583 43.1417 8.00833 43.1417 9.42917V56.9625H43.0125Z" fill="#FB1D5C"/>
<path d="M9.94481 20.0205H7.87814C6.97397 20.0205 6.19897 20.7955 6.19897 21.6997V23.7663C6.19897 24.6705 6.97397 25.4455 7.87814 25.4455H9.94481C10.849 25.4455 11.624 24.6705 11.624 23.7663V21.6997C11.624 20.7955 10.849 20.0205 9.94481 20.0205Z" fill="#FB1D5C" fill-opacity="0.4"/>
<path d="M39.3969 21.4414H17.3094C16.6635 21.4414 16.0177 21.9581 16.0177 22.7331C16.0177 23.3789 16.5344 24.0247 17.3094 24.0247H39.526C40.1719 24.0247 40.8177 23.5081 40.8177 22.7331C40.6885 22.0872 40.1719 21.4414 39.3969 21.4414Z" fill="#FB1D5C"/>
<path d="M9.94481 29.5791H7.87814C6.97397 29.5791 6.19897 30.3541 6.19897 31.2583V33.3249C6.19897 34.2291 6.97397 35.0041 7.87814 35.0041H9.94481C10.849 35.0041 11.624 34.2291 11.624 33.3249V31.2583C11.624 30.3541 10.849 29.5791 9.94481 29.5791Z" fill="#FB1D5C" fill-opacity="0.4"/>
<path d="M39.3969 31H17.3094C16.6635 31 16.0177 31.5167 16.0177 32.2917C16.0177 32.9375 16.5344 33.5833 17.3094 33.5833H39.526C40.1719 33.5833 40.8177 33.0667 40.8177 32.2917C40.6885 31.6458 40.1719 31 39.3969 31Z" fill="#FB1D5C"/>
<path d="M9.94481 39.2666H7.87814C6.97397 39.2666 6.19897 40.0416 6.19897 40.9458V43.0124C6.19897 43.9166 6.97397 44.6916 7.87814 44.6916H9.94481C10.849 44.6916 11.624 43.9166 11.624 43.0124V40.9458C11.624 39.9124 10.849 39.2666 9.94481 39.2666Z" fill="#FB1D5C" fill-opacity="0.4"/>
<path d="M39.3969 40.6875H17.3094C16.6635 40.6875 16.0177 41.2042 16.0177 41.9792C16.0177 42.625 16.5344 43.2708 17.3094 43.2708H39.526C40.1719 43.2708 40.8177 42.7542 40.8177 41.9792C40.6885 41.2042 40.1719 40.6875 39.3969 40.6875Z" fill="#FB1D5C"/>
<path d="M9.94481 48.8252H7.87814C6.97397 48.8252 6.19897 49.6002 6.19897 50.5044V52.571C6.19897 53.4752 6.97397 54.2502 7.87814 54.2502H9.94481C10.849 54.2502 11.624 53.4752 11.624 52.571V50.5044C11.624 49.6002 10.849 48.8252 9.94481 48.8252Z" fill="#FB1D5C" fill-opacity="0.4"/>
<path d="M39.3969 50.2451H17.3094C16.6635 50.2451 16.0177 50.7618 16.0177 51.5368C16.0177 52.3118 16.5344 52.8285 17.3094 52.8285H39.526C40.1719 52.8285 40.8177 52.3118 40.8177 51.5368C40.8177 50.7618 40.1719 50.2451 39.3969 50.2451Z" fill="#FB1D5C"/>
</svg>
