<svg width="53" height="62" viewBox="0 0 53 62" fill="none" xmlns="http://www.w3.org/2000/svg">
<path d="M26.3533 32.0827L26.2966 32.1914V32.2523C26.2769 32.2866 26.2394 32.3391 26.1803 32.3982L26.5338 32.7518L26.1803 32.3983C26.1351 32.4435 26.1094 32.4685 26.0792 32.4927C26.0519 32.5146 26.016 32.5393 25.96 32.5673L25.9292 32.5827L25.9008 32.6021C24.3647 33.6555 22.2821 35.1243 20.5852 36.3285C19.7364 36.9309 18.9835 37.4675 18.4427 37.8536C18.1723 38.0466 17.955 38.202 17.8052 38.3092L17.633 38.4324L17.5883 38.4644L17.577 38.4726L17.5741 38.4746L17.5733 38.4752L17.5732 38.4753L17.8644 38.8817L17.573 38.4752L17.5644 38.4817C17.2822 38.6933 16.9471 38.8196 16.6384 38.8196C16.381 38.8196 16.1139 38.7575 15.8327 38.6203C15.2877 38.2701 14.9513 37.6506 14.9491 37.0488L15.2116 26.8975L15.2118 26.8975V26.8846C15.2118 26.6085 15.2824 26.3609 15.3905 26.1986L15.4039 26.1786L15.4153 26.1573L23.9972 10.1319L23.9974 10.132L24.0037 10.1195C24.1882 9.75041 24.5818 9.46813 25.0281 9.31937C25.3974 9.19626 25.8689 9.24853 26.3038 9.46418L34.2578 13.7471C35.0978 14.2417 35.4007 15.2581 34.9466 16.0366L34.9424 16.0437L34.9385 16.0509L35.3785 16.2885C34.9385 16.0509 34.9385 16.051 34.9385 16.051L34.9383 16.0515L34.9374 16.0531L34.9338 16.0596L34.9199 16.0855L34.8652 16.1867L34.6559 16.5744C34.4746 16.9104 34.2132 17.3948 33.893 17.9887C33.2526 19.1765 32.3768 20.8023 31.4352 22.5539C29.5529 26.056 27.4058 30.0653 26.3533 32.0827ZM26.5935 13.4827L26.1522 13.248L25.9174 13.6892L19.4371 25.8615L19.1961 26.3143L19.6549 26.5437L19.8241 26.6283L23.759 28.7269L24.2005 28.9624L24.4356 28.5207L30.9159 16.3484L31.1509 15.9068L30.7093 15.672L26.5935 13.4827Z" fill="#FB1D5C" fill-opacity="0.4" stroke="white"/>
<path d="M15.8503 48.8023H15.6432L15.4967 48.9487L3.43225 61.0132C3.05452 61.3104 2.6431 61.5 2.18927 61.5C1.9363 61.5 1.74631 61.4418 1.49596 61.3586C0.896659 61.0826 0.5 60.4777 0.5 59.8107V2.18927C0.5 1.23942 1.23942 0.5 2.18927 0.5H49.8277C50.7775 0.5 51.5169 1.23942 51.5169 2.18927V37.9181V38.0056C51.5169 38.9555 50.7775 39.6949 49.8277 39.6949H28.4605C27.5106 39.6949 26.7712 38.9555 26.7712 38.0056C26.7712 37.0558 27.5106 36.3164 28.4605 36.3164H47.5508H48.0508V35.8164V4.37853V3.87853H47.5508H4.37853H3.87853V4.37853V54.5565V55.772L4.7338 54.9083L13.645 45.9098C14.0224 45.613 14.4335 45.4237 14.887 45.4237H49.8277C50.7775 45.4237 51.5169 46.1632 51.5169 47.113C51.5169 48.0628 50.7775 48.8023 49.8277 48.8023H15.8503Z" fill="#FB1D5C" stroke="white"/>
</svg>
