<?xml version="1.0" encoding="UTF-8"?>
<svg width="95px" height="59px" viewBox="0 0 95 59" version="1.1" xmlns="http://www.w3.org/2000/svg" xmlns:xlink="http://www.w3.org/1999/xlink">
    <!-- Generator: Sketch 55 (78076) - https://sketchapp.com -->
    <title>&gt;</title>
    <desc>Created with Sketch.</desc>
    <g id="01-landing-page" stroke="none" stroke-width="1" fill="none" fill-rule="evenodd">
        <g id="Desktop-HD" transform="translate(-134.000000, -969.000000)" fill="#303030" fill-rule="nonzero">
            <path d="M227.439326,1001.35685 L205.309938,1026.26262 C203.86105,1027.89328 201.37281,1028.06241 199.716595,1026.6428 L199.539947,1026.49138 C197.862644,1025.05369 197.668398,1022.52849 199.106086,1020.85119 C199.135001,1020.81746 199.164475,1020.78421 199.194496,1020.75146 L210.7,1008.2 C213.033345,1005.59999 215.166657,1003.66667 217.1,1002.4 L138.3,1002.4 C136.256546,1002.4 134.6,1000.74345 134.6,998.7 L134.6,998.7 C134.6,996.656546 136.256546,995 138.3,995 L217.1,995 C215.76666,994.199996 214.783336,993.483336 214.15,992.85 C213.516663,992.216663 212.366675,991.000009 210.7,989.2 L199.194496,976.648541 C197.701727,975.020065 197.811738,972.489796 199.440214,970.997026 C199.472965,970.967005 199.506214,970.937531 199.539947,970.908617 L199.716595,970.757205 C201.37281,969.337591 203.86105,969.506717 205.309938,971.137384 L227.439326,996.043153 C228.785755,997.558507 228.785755,999.841493 227.439326,1001.35685 Z" id="&gt;"></path>
        </g>
    </g>
</svg>