<svg width="40" height="34" viewBox="0 0 40 34" fill="none" xmlns="http://www.w3.org/2000/svg">
<path d="M2.71094 26.7663V33.2502C2.71094 33.6447 3.03144 33.9734 3.43411 33.9734H8.44704C8.8415 33.9734 9.17021 33.6529 9.17021 33.2502V21.8438L5.52968 25.4843C4.7572 26.2485 3.77105 26.6923 2.71094 26.7663Z" fill="#464646"/>
<path d="M11.6699 21.7617V33.2503C11.6699 33.6448 11.9904 33.9735 12.3931 33.9735H17.406C17.8005 33.9735 18.1292 33.653 18.1292 33.2503V26.487C16.9869 26.4624 15.9186 26.0104 15.1132 25.205L11.6699 21.7617Z" fill="#464646"/>
<path d="M20.627 25.7707V33.249C20.627 33.6435 20.9475 33.9722 21.3501 33.9722H26.363C26.7575 33.9722 27.0862 33.6517 27.0862 33.249V19.4512L21.3419 25.1955C21.12 25.4174 20.8817 25.6064 20.627 25.7707Z" fill="#464646"/>
<path d="M35.5584 10.9707L29.584 16.9451V33.2494C29.584 33.6439 29.9045 33.9726 30.3072 33.9726H35.3201C35.7145 33.9726 36.0433 33.6521 36.0433 33.2494V11.4227C35.8789 11.283 35.7556 11.1597 35.6652 11.0775L35.5584 10.9707Z" fill="#464646"/>
<path d="M39.6596 0.386241C39.4213 0.131486 39.0597 0 38.5995 0C38.5584 0 38.5091 0 38.468 0C36.1341 0.106833 33.8085 0.221883 31.4746 0.328716C31.1623 0.345152 30.735 0.361588 30.398 0.698522C30.2912 0.805355 30.209 0.928623 30.1433 1.07655C29.7981 1.82437 30.283 2.30923 30.5131 2.53933L31.0966 3.13102C31.4992 3.54192 31.9101 3.95281 32.321 4.35549L18.2191 18.4656L11.8831 12.1296C11.5051 11.7516 10.9956 11.5379 10.4532 11.5379C9.91079 11.5379 9.4095 11.7516 9.03148 12.1296L0.591689 20.5612C-0.19723 21.3501 -0.19723 22.6239 0.591689 23.4128L0.969713 23.7908C1.34774 24.1689 1.85725 24.3825 2.39963 24.3825C2.94201 24.3825 3.4433 24.1689 3.82133 23.7908L10.4532 17.159L16.7892 23.495C17.1672 23.873 17.6767 24.0867 18.2191 24.0867C18.7615 24.0867 19.2628 23.873 19.649 23.495L35.5589 7.58513L37.3586 9.37663C37.5723 9.59029 37.8681 9.88614 38.3201 9.88614C38.5091 9.88614 38.6981 9.83683 38.8953 9.73C39.0268 9.65604 39.1419 9.57386 39.2405 9.47524C39.5939 9.12187 39.6596 8.66989 39.676 8.31652C39.7418 6.80443 39.8158 5.29233 39.8897 3.77202L39.9965 1.49566C40.0212 1.01902 39.9144 0.649214 39.6596 0.386241Z" fill="#464646"/>
</svg>
