<?xml version="1.0" encoding="UTF-8"?>
<svg width="16px" height="16px" viewBox="0 0 16 16" version="1.1" xmlns="http://www.w3.org/2000/svg" xmlns:xlink="http://www.w3.org/1999/xlink">
    <!-- Generator: Sketch 55.1 (78136) - https://sketchapp.com -->
    <title>outline-alarm-24px</title>
    <desc>Created with Sketch.</desc>
    <g id="icons" stroke="none" stroke-width="1" fill="none" fill-rule="evenodd">
        <g id="Artboard" transform="translate(-47.000000, -47.000000)">
            <g id="outline-alarm-24px" transform="translate(46.000000, 46.000000)">
                <polygon id="Path" points="0 0 19 0 19 19 0 19"></polygon>
                <path d="M9.40187057,5.90539871 L8.19505204,5.90539871 L8.19505204,10.6602278 L12.016644,12.9187717 L12.6200533,11.9440317 L9.40187057,10.0658742 L9.40187057,5.90539871 Z M13.293458,1 L17,4.047053 L15.9701815,5.26349678 L12.2612259,2.21802873 L13.293458,1 Z M4.70573742,1 L5.73716498,2.21723626 L2.02981847,5.26349678 L1,4.04626053 L4.70573742,1 Z M8.99959773,2.73551263 C5.00100568,2.73551263 1.75868658,5.92917286 1.75868658,9.86775632 C1.75868658,13.8063398 5.00100568,17 8.99959773,17 C12.9981898,17 16.2405089,13.8063398 16.2405089,9.86775632 C16.2405089,5.92917286 12.9981898,2.73551263 8.99959773,2.73551263 Z M8.99959773,15.415057 C5.89405139,15.415057 3.36777795,12.9266964 3.36777795,9.86775632 C3.36777795,6.80881625 5.89405139,4.32045567 8.99959773,4.32045567 C12.1051441,4.32045567 14.6314175,6.80881625 14.6314175,9.86775632 C14.6314175,12.9266964 12.1051441,15.415057 8.99959773,15.415057 Z" id="Shape" fill="#fa1e5a" fill-rule="nonzero"></path>
            </g>
        </g>
    </g>
</svg>