<?xml version="1.0" encoding="UTF-8"?>
<svg width="326px" height="194px" viewBox="0 0 326 194" version="1.1" xmlns="http://www.w3.org/2000/svg" xmlns:xlink="http://www.w3.org/1999/xlink">
    <!-- Generator: Sketch 55.1 (78136) - https://sketchapp.com -->
    <title>Group 9</title>
    <desc>Created with Sketch.</desc>
    <g id="#playground" stroke="none" stroke-width="1" fill="none" fill-rule="evenodd">
        <g id="location" transform="translate(-333.000000, -1813.000000)" fill-rule="nonzero">
            <g id="TechLabs-locations" transform="translate(-379.000000, 745.000000)">
                <g id="Group-10" transform="translate(655.267597, 1039.000000)">
                    <g id="Group-9" transform="translate(57.000000, 29.000000)">
                        <g id="svg19">
                            <path d="M325,171.634201 C325,176.594536 252.246271,193.788522 162.5,193.788522 C72.7537293,193.788522 0,176.594536 0,171.634201 C0,166.673867 72.7537293,175.825559 162.5,175.825559 C252.246271,175.825559 325,166.673864 325,171.634201 Z" id="Path" fill="#3F3D56"></path>
                            <path d="M325,171.634201 C325,176.594536 252.246271,193.788522 162.5,193.788522 C72.7537293,193.788522 0,176.594536 0,171.634201 C0,166.673867 72.7537293,175.825559 162.5,175.825559 C252.246271,175.825559 325,166.673864 325,171.634201 Z" id="Path" fill="#000000" opacity="0.1"></path>
                            <ellipse id="Oval" fill="#3F3D56" cx="162.5" cy="171.634198" rx="162.5" ry="8.98148148"></ellipse>
                            <path d="M188.994669,128.421144 C188.994669,147.586467 200.991097,163.094803 215.816381,163.094803" id="Path" fill="#3F3D56"></path>
                            <path d="M215.816381,163.094803 C215.816381,143.71414 229.203699,128.031551 245.747854,128.031551" id="Path" fill="#fa1e5a"></path>
                            <path d="M198.71268,130.158513 C198.71268,148.363533 206.362577,163.094803 215.816381,163.094803" id="Path" fill="#fa1e5a"></path>
                            <path d="M215.816381,163.094803 C215.816381,138.330622 231.290026,118.29176 250.4125,118.29176" id="Path" fill="#3F3D56"></path>
                            <path d="M210.173784,163.339261 C210.173784,163.339261 213.977545,163.221846 215.123901,162.403711 C216.270258,161.585576 220.975043,160.608678 221.259426,161.920789 C221.54381,163.232899 226.97577,168.446625 222.681343,168.481342 C218.386916,168.516058 212.703007,167.810919 211.558855,167.112408 C210.414702,166.413898 210.173784,163.339261 210.173784,163.339261 Z" id="Path" fill="#A8A8A8"></path>
                            <path d="M222.757981,168.024601 C218.463554,168.059329 212.779648,167.354184 211.635495,166.65567 C210.764164,166.123718 210.416946,164.214943 210.30077,163.334318 C210.220312,163.337785 210.173784,163.339279 210.173784,163.339279 C210.173784,163.339279 210.414705,166.413916 211.558861,167.112426 C212.703016,167.810937 218.386919,168.516082 222.681346,168.481357 C223.920976,168.471336 224.349167,168.029307 224.325655,167.37462 C224.153441,167.770125 223.680653,168.017116 222.757981,168.024601 Z" id="Path" fill="#000000" opacity="0.2"></path>
                            <path d="M258.546136,61.0299331 C258.546136,61.0299331 249.349209,54.0315268 248.651125,56.5969044 C247.953042,59.1622819 255.399264,64.9926765 255.399264,64.9926765 L258.546136,61.0299331 Z" id="Path" fill="#FFB9B9"></path>
                            <path d="M258.546136,61.0299331 C258.546136,61.0299331 249.349209,54.0315268 248.651125,56.5969044 C247.953042,59.1622819 255.399264,64.9926765 255.399264,64.9926765 L258.546136,61.0299331 Z" id="Path" fill="#000000" opacity="0.1"></path>
                            <path d="M288.907262,38.8724925 C288.907262,38.8724925 277.970624,58.4626305 277.737929,61.2612302 C277.505235,64.0598299 277.505232,64.293037 276.574456,64.0598209 C275.643681,63.8266048 262.845486,62.4273109 261.682012,62.8937432 C260.518539,63.3601755 258.191596,60.0951525 258.191596,60.0951525 C258.191596,60.0951525 253.770404,64.5262532 254.70118,65.4591177 C255.631955,66.3919823 258.424288,66.8584056 258.889683,68.0244863 C259.355078,69.190567 260.053156,70.3566477 262.147405,70.1234316 C264.241653,69.8902155 278.436013,73.8548839 280.297564,73.1552355 C282.159115,72.455587 282.624508,71.2895063 283.555286,71.2895063 C284.486065,71.2895063 286.347619,70.3566448 286.347619,70.1234286 C286.347619,69.8902125 292.863062,57.5297659 292.863062,57.5297659 C292.863062,57.5297659 300.541982,40.7382187 288.907262,38.8724925 Z" id="Path" fill="#D0CDE1"></path>
                            <path d="M288.907262,38.8724925 C288.907262,38.8724925 277.970624,58.4626305 277.737929,61.2612302 C277.505235,64.0598299 277.505232,64.293037 276.574456,64.0598209 C275.643681,63.8266048 262.845486,62.4273109 261.682012,62.8937432 C260.518539,63.3601755 258.191596,60.0951525 258.191596,60.0951525 C258.191596,60.0951525 253.770404,64.5262532 254.70118,65.4591177 C255.631955,66.3919823 258.424288,66.8584056 258.889683,68.0244863 C259.355078,69.190567 260.053156,70.3566477 262.147405,70.1234316 C264.241653,69.8902155 278.436013,73.8548839 280.297564,73.1552355 C282.159115,72.455587 282.624508,71.2895063 283.555286,71.2895063 C284.486065,71.2895063 286.347619,70.3566448 286.347619,70.1234286 C286.347619,69.8902125 292.863062,57.5297659 292.863062,57.5297659 C292.863062,57.5297659 300.541982,40.7382187 288.907262,38.8724925 Z" id="Path" fill="#000000" opacity="0.1"></path>
                            <path d="M273.039944,25.95767 C272.940954,27.1961621 272.960923,28.4413216 273.099576,29.6759854 C273.453008,32.3553978 274.683685,35.1484021 273.521174,37.6494932 C273.099215,38.5573204 272.384316,39.3483464 271.994973,40.2670861 C271.170764,42.211984 271.917974,44.3691562 271.805945,46.4391452 C271.661224,49.1131148 269.96433,51.6897193 267.383026,53.15503 C271.793061,53.2923419 275.987061,51.1070217 278.761954,48.1291127 C281.536848,45.1512037 283.082175,41.4575994 284.240675,37.762088 C284.836095,36.0266065 285.217789,34.224734 285.377278,32.3964941 C285.469659,31.3462196 285.346812,30.2881045 285.016284,29.2871501 C284.608645,28.30927 284.071938,27.3906269 283.420528,26.5558068 C282.725706,25.5766935 282.011796,24.578339 280.986654,23.8498421 C279.723993,22.9525711 277.289217,22.0516627 275.614189,22.1822384 C273.559591,22.3424022 273.126401,24.5284768 273.039944,25.95767 Z" id="Path" fill="#2F2E41"></path>
                            <path d="M279.832169,33.2753081 C279.832169,33.2753081 282.391807,42.3707317 280.297564,44.9361062 C278.203322,47.5014808 292.863062,43.7700255 292.863062,43.7700255 C292.863062,43.7700255 285.649535,36.5403311 289.139951,31.8760143 L279.832169,33.2753081 Z" id="Path" fill="#FFB9B9"></path>
                            <path d="M279.832169,33.2753081 C279.832169,33.2753081 282.391807,42.3707317 280.297564,44.9361062 C278.203322,47.5014808 292.863062,43.7700255 292.863062,43.7700255 C292.863062,43.7700255 285.649535,36.5403311 289.139951,31.8760143 L279.832169,33.2753081 Z" id="Path" fill="#000000" opacity="0.1"></path>
                            <polygon id="Path" fill="#FFB9B9" points="271.455055 154.547645 271.455055 161.311 274.945519 165.508645 277.970588 164.10933 277.039798 154.314426"></polygon>
                            <path d="M272.851345,160.84443 C272.851345,160.84443 271.920555,157.579407 270.291707,159.911553 C268.66286,162.2437 267.033986,167.374464 266.103207,167.60768 C265.172429,167.840896 258.656985,175.070591 265.172417,175.070591 C271.687848,175.070591 273.782112,172.038784 273.782112,172.038784 C273.782112,172.038784 280.297555,169.473406 280.297555,169.006974 C280.297555,168.540542 279.366765,159.911553 278.901388,159.911553 C278.43601,159.911553 278.203295,161.544066 277.039834,161.544066 C275.876372,161.544066 272.851345,160.84443 272.851345,160.84443 Z" id="Path" fill="#2F2E41"></path>
                            <polygon id="Path" fill="#FFB9B9" points="287.045795 155.713741 286.813097 162.010657 292.397541 164.342549 292.397541 155.247302"></polygon>
                            <path d="M293.09576,162.010508 C293.09576,162.010508 290.070733,158.745485 288.441873,159.445133 C287.636062,159.770175 286.857866,160.160146 286.114927,160.611214 C286.114927,160.611214 285.184151,163.643021 284.718762,166.208395 C284.253373,168.77377 284.020669,169.939851 283.555289,170.872715 C283.089909,171.80558 282.624499,175.303819 287.2784,175.770251 C291.932301,176.236683 293.328454,173.671306 293.328454,173.671306 L294.491927,167.607692 C294.491927,167.607692 294.026538,162.010508 293.09576,162.010508 Z" id="Path" fill="#2F2E41"></path>
                            <path d="M274.480208,88.5474859 C274.480208,88.5474859 267.73207,103.706523 268.662845,117.466264 C268.662845,117.466264 266.335902,122.830232 267.73207,131.226004 C269.128237,139.621776 270.989791,156.413341 270.989791,156.413341 C270.989791,156.413341 277.27254,157.112999 277.737929,155.946903 C277.737929,155.946903 278.203325,144.286108 278.668705,143.819676 C279.134085,143.353243 278.436007,132.62531 277.737929,130.526364 C277.039852,128.427419 284.253373,107.671189 284.253373,107.671189 L282.391816,81.7842177 L274.480208,88.5474859 Z" id="Path" fill="#2F2E41"></path>
                            <path d="M274.480208,88.5474859 C274.480208,88.5474859 267.73207,103.706523 268.662845,117.466264 C268.662845,117.466264 266.335902,122.830232 267.73207,131.226004 C269.128237,139.621776 270.989791,156.413341 270.989791,156.413341 C270.989791,156.413341 277.27254,157.112999 277.737929,155.946903 C277.737929,155.946903 278.203325,144.286108 278.668705,143.819676 C279.134085,143.353243 278.436007,132.62531 277.737929,130.526364 C277.039852,128.427419 284.253373,107.671189 284.253373,107.671189 L282.391816,81.7842177 L274.480208,88.5474859 Z" id="Path" fill="#000000" opacity="0.1"></path>
                            <path d="M272.618651,87.6146243 L277.039846,97.1764771 C277.039846,97.1764771 279.134094,118.865557 280.297567,121.664151 C280.297567,121.664151 280.762963,129.593494 282.857205,132.158868 C284.951448,134.724243 286.580316,157.346191 286.580316,157.346191 C286.580316,157.346191 292.397679,158.978701 292.863065,157.346191 C293.328451,155.713681 294.724622,144.519312 294.724622,144.519312 C294.724622,144.519312 295.190017,134.957459 292.63037,128.660629 C290.070724,122.3638 295.655401,99.7418517 295.655401,99.7418517 C295.655401,99.7418517 301.47276,88.780702 293.09576,79.9184976 L272.618651,87.6146243 Z" id="Path" fill="#2F2E41"></path>
                            <ellipse id="Oval" fill="#FFB9B9" cx="284.951457" cy="26.512046" rx="9.54047059" ry="9.56185284"></ellipse>
                            <path d="M293.793844,40.9714348 C293.793844,40.9714348 283.787984,40.9714348 282.391816,42.1375155 C281.674974,42.8212565 280.54902,42.8212565 279.832178,42.1375155 C279.832178,42.1375155 276.341762,42.3707347 275.410983,45.1693224 C274.480205,47.9679101 271.687872,51.6993684 271.687872,51.6993684 C271.687872,51.6993684 267.499375,54.7311752 269.826318,62.6605181 C272.153261,70.5898609 270.291713,83.4167218 270.291713,83.4167218 C270.291713,83.4167218 268.430156,86.2153125 270.291713,87.3813932 C272.15327,88.5474739 272.851351,89.0139032 272.618657,89.9467677 C272.385962,90.8796323 293.793841,82.250641 293.793841,80.618131 C293.793841,78.985621 293.328445,77.5863242 293.793841,76.8866758 C294.259236,76.1870273 294.724631,75.0209466 294.259236,73.8548689 C293.793841,72.6887912 294.724631,72.4555721 294.491933,71.2894914 C294.259236,70.1234106 295.655421,61.4944224 296.586182,57.7629671 C297.516943,54.0315118 297.28426,41.204651 293.793844,40.9714348 Z" id="Path" fill="#D0CDE1"></path>
                            <path d="M258.546136,63.8285238 C258.546136,63.8285238 249.349209,56.8301205 248.651125,59.3954951 C247.953042,61.9608696 255.399264,67.7912672 255.399264,67.7912672 L258.546136,63.8285238 Z" id="Path" fill="#FFB9B9"></path>
                            <path d="M288.907262,42.1375155 C288.907262,42.1375155 277.970624,61.7276535 277.737929,64.5262532 C277.505235,67.3248529 277.505232,67.55806 276.574456,67.3248469 C275.643681,67.0916337 262.845486,65.6923339 261.682012,66.1587662 C260.518539,66.6251985 258.191596,63.3601755 258.191596,63.3601755 C258.191596,63.3601755 253.770404,67.7912672 254.70118,68.7241437 C255.631955,69.6570203 258.424291,70.1234406 258.88968,71.2895183 C259.355069,72.455596 260.053153,73.6216797 262.147402,73.3884636 C264.24165,73.1552474 278.436013,77.1199069 280.297564,76.4202585 C282.159115,75.72061 282.624508,74.5545293 283.555286,74.5545293 C284.486065,74.5545293 286.347619,73.6216677 286.347619,73.3884516 C286.347619,73.1552355 292.863062,60.7947889 292.863062,60.7947889 C292.863062,60.7947889 300.541982,44.0032417 288.907262,42.1375155 Z" id="Path" fill="#D0CDE1"></path>
                            <path d="M280.227167,32.6210192 C280.094908,31.6740267 279.611002,30.8149001 279.362765,29.8916068 C278.970175,28.3984463 279.202641,26.8093787 280.006385,25.4920161 C281.374832,23.2768206 284.061545,22.2957075 285.935275,20.4897411 C285.974108,21.4096574 286.610991,22.1957945 287.314933,22.7874047 C288.018874,23.3790148 288.826272,23.8589373 289.422337,24.5595617 C289.994901,25.2987796 290.412406,26.1464054 290.649749,27.0514798 C291.016873,28.1002181 291.181418,29.2094201 291.134597,30.3198409 C291.080376,31.4411601 290.56957,32.4910964 289.721471,33.224452 C289.023593,33.7772532 288.048378,34.0929612 287.711194,34.9179672 C287.578635,35.3302558 287.540338,35.7671544 287.599137,36.1962925 C287.758907,38.7621281 287.908195,41.3736615 287.305344,43.8724803 C286.702493,46.3712991 285.225529,48.7854854 282.910788,49.8932254 C284.812994,50.0284775 286.75535,50.1603406 288.600908,49.6790919 C290.446466,49.1978431 292.211473,47.9860048 292.847765,46.1842597 C293.161659,45.2954284 293.191348,44.3068666 293.637348,43.4766963 C294.766185,41.3755177 297.883258,41.2797152 299.414462,39.4521873 C300.027221,38.7208432 300.323655,37.7784164 300.543377,36.8491504 C301.836285,31.3810418 300.927886,25.5747685 298.959677,20.3128239 C298.281284,18.4991634 297.436684,16.6730366 295.981595,15.3983279 C294.743387,14.3136134 293.162176,13.7159647 291.598474,13.205556 C289.316416,12.4606679 286.965555,11.8503792 284.566804,11.7717044 C283.524735,11.7103716 282.480006,11.8326158 281.48006,12.1328857 C280.492957,12.490299 279.574343,13.0147708 278.76418,13.6834846 C275.006567,16.6138427 272.448217,21.2972631 272.78771,26.0569094 C272.993133,28.9368903 274.21067,31.6624227 275.77478,34.0871532 C276.321823,34.9351937 277.614355,36.7434623 278.815702,36.2102377 C279.905255,35.7266269 280.370011,33.6438183 280.227167,32.6210192 Z" id="Path" fill="#2F2E41"></path>
                            <ellipse id="Oval" fill="#2F2E41" cx="61.5964226" cy="9.8313392" rx="10.0537615" ry="7.85950883"></ellipse>
                            <path d="M63.3055641,63.9410408 C63.3055641,63.9410408 72.3539494,64.5456173 73.9625501,63.3364614 C75.5711507,62.1273055 82.4077109,64.9486702 83.0109354,66.5608761 C83.6141599,68.1730819 73.3593256,68.3746084 71.750722,68.3746084 C70.1421183,68.3746084 62.5012608,70.7929202 62.5012608,70.7929202 L63.3055641,63.9410408 Z" id="Path" fill="#A0616A"></path>
                            <path d="M44.6732335,157.816102 C44.6732335,157.816102 40.4562987,168.473908 42.6564472,169.760194 C44.8565956,171.04648 67.957969,170.127704 67.957969,170.127704 C67.957969,170.127704 71.8082004,167.738888 67.4079364,166.085089 C67.4079364,166.085089 63.7410492,165.901333 61.3575715,164.431298 C58.9740938,162.961263 56.2239306,160.204913 56.2239306,160.204913 C56.2239306,160.204913 56.0405864,156.162297 54.5738387,157.081075 C53.6864618,157.667027 53.0872138,158.601283 52.9237468,159.653647 L44.6732335,157.816102 Z" id="Path" fill="#2F2E41"></path>
                            <path d="M44.6732335,157.816102 C44.6732335,157.816102 40.4562987,168.473908 42.6564472,169.760194 C44.8565956,171.04648 67.957969,170.127704 67.957969,170.127704 C67.957969,170.127704 71.8082004,167.738888 67.4079364,166.085089 C67.4079364,166.085089 63.7410492,165.901333 61.3575715,164.431298 C58.9740938,162.961263 56.2239306,160.204913 56.2239306,160.204913 C56.2239306,160.204913 56.0405864,156.162297 54.5738387,157.081075 C53.6864618,157.667027 53.0872138,158.601283 52.9237468,159.653647 L44.6732335,157.816102 Z" id="Path" fill="#000000" opacity="0.1"></path>
                            <path d="M38.1711604,161.076526 C38.1711604,161.076526 33.5464283,172.765026 35.9593323,174.175718 C38.3722362,175.586409 63.7077008,174.578771 63.7077008,174.578771 C63.7077008,174.578771 67.9302813,171.958933 63.1044763,170.145212 C63.1044763,170.145212 59.0829717,169.943686 56.468992,168.33148 C53.8550122,166.719274 50.8389017,163.696353 50.8389017,163.696353 C50.8389017,163.696353 50.6378258,159.262794 49.0292252,160.270412 C48.0560278,160.913028 47.3988247,161.937635 47.2195487,163.091773 L38.1711604,161.076526 Z" id="Path" fill="#2F2E41"></path>
                            <path d="M61.8980363,86.9149908 L59.0829837,112.307253 C59.0829837,112.307253 58.0776075,124.398806 55.0614791,127.018641 C55.0614791,127.018641 55.0614791,130.847632 54.0561029,132.056788 L52.6485662,147.977332 C52.6485662,147.977332 54.6593185,153.821582 54.4582426,154.829212 C54.2571668,155.836841 55.262546,159.061256 55.0614701,159.464309 C54.8603943,159.867362 45.4098573,159.464309 45.4098573,159.464309 L47.4206096,127.018641 L53.6539423,81.8768438 L61.8980363,86.9149908 Z" id="Path" fill="#2F2E41"></path>
                            <path d="M61.8980363,86.9149908 L59.0829837,112.307253 C59.0829837,112.307253 58.0776075,124.398806 55.0614791,127.018641 C55.0614791,127.018641 55.0614791,130.847632 54.0561029,132.056788 L52.6485662,147.977332 C52.6485662,147.977332 54.6593185,153.821582 54.4582426,154.829212 C54.2571668,155.836841 55.262546,159.061256 55.0614701,159.464309 C54.8603943,159.867362 45.4098573,159.464309 45.4098573,159.464309 L47.4206096,127.018641 L53.6539423,81.8768438 L61.8980363,86.9149908 Z" id="Path" fill="#000000" opacity="0.1"></path>
                            <path d="M56.8711556,86.1088879 C56.8711556,86.1088879 54.6593274,106.866053 53.6539513,111.299623 C53.0218348,114.219306 52.6184549,117.184053 52.4474993,120.166761 C52.4474993,120.166761 52.2464265,126.615588 50.436747,128.429323 C49.3664739,129.491395 48.7839458,130.950981 48.8281464,132.459841 C48.8281464,132.459841 47.0184699,152.813953 48.023846,155.232264 C49.0292222,157.650576 50.0345983,159.665823 49.0292222,161.278041 C48.023846,162.890259 36.9647084,162.890247 36.9647084,161.681094 C36.9647084,160.471941 36.9647084,159.464309 36.3614809,158.859729 C35.7582534,158.25515 36.3614809,154.426171 36.3614809,154.426171 C36.3614809,154.426171 33.94858,136.490368 36.1604081,131.250694 C38.3722362,126.01102 39.3776094,111.702682 39.3776094,111.702682 C39.3776094,111.702682 37.7690087,95.3790851 35.7582564,92.7592408 C33.7475041,90.1393966 36.1604081,80.8692144 36.1604081,80.8692144 L56.8711556,86.1088879 Z" id="Path" fill="#2F2E41"></path>
                            <path d="M51.2100947,21.648966 C51.4438497,22.1826695 52.0033665,22.4798219 52.5127383,22.761074 C55.4649003,24.391123 57.9360682,26.7544412 60.3707215,29.0905245 C59.7632116,27.0271796 59.8926506,24.8160935 60.7367438,22.8381081 C61.0274246,22.1634522 61.4084125,21.4382694 61.2006455,20.7335195 C61.0478477,20.215261 60.6075234,19.8414518 60.1810057,19.5108405 C59.1875593,18.7408243 58.1492151,18.0308213 57.0714936,17.3846065 C56.3186108,16.9331643 54.7707146,15.7313941 53.9067523,15.8621525 C53.8613957,17.0321043 53.8377107,18.0781115 53.3265168,19.171571 C53.2052452,19.4309382 51.2994547,21.8529923 51.2100947,21.648966 Z" id="Path" fill="#A0616A"></path>
                            <ellipse id="Oval" fill="#A0616A" cx="61.4958847" cy="15.9778789" rx="8.24408502" ry="8.26256179"></ellipse>
                            <path d="M61.8980363,35.5258937 C61.8980363,35.5258937 63.3055731,28.4724878 59.2840595,26.054176 C55.262546,23.6358643 50.6378228,20.8145025 50.6378228,20.8145025 C50.6378228,20.8145025 49.2302861,20.612979 48.6270705,23.6358673 C48.6270705,23.6358673 37.1657842,25.8526496 35.9593323,36.7350586 C34.7528803,47.6174677 36.7636326,63.5379998 36.7636326,63.5379998 C36.7636326,63.5379998 34.9539561,77.4432851 32.742128,84.899744 C32.742128,84.899744 30.9324515,86.5119498 38.9754607,84.093641 C47.0184699,81.6753323 61.093727,90.9455085 61.093727,90.9455085 C61.093727,90.9455085 62.5012638,89.5348171 62.5012638,88.5271967 C62.5012638,87.5195763 64.1098674,81.6753173 64.1098674,81.6753173 C64.1098674,81.6753173 65.5174042,56.8876259 66.1206197,54.0662702 C66.7238352,51.2449144 63.7077128,35.9289407 61.8980363,35.5258937 Z" id="Path" fill="#575A89"></path>
                            <path d="M59.5529642,16.8290839 C60.0482315,16.5539691 60.6036329,16.4057194 61.1698242,16.3975057 C61.7366851,16.3890077 62.2901837,16.2237134 62.7692364,15.9198645 C63.5479818,15.320674 63.6051048,14.1626916 64.1747987,13.3613219 C64.9995967,12.2011121 66.6450078,12.061465 68.065219,12.1195153 C68.9338771,12.1550191 69.8693394,12.2070099 70.6008254,11.7361318 C71.3517606,11.2527335 71.6921383,10.3419274 71.9453336,9.48419296 C72.2447668,8.46986636 72.4384345,7.22942497 71.6964517,6.47715404 C71.1812043,5.95476114 70.3679037,5.85144417 69.7955273,5.3926641 C69.2020528,4.91697491 68.9578398,4.14281312 68.6352505,3.45321796 C68.2681653,2.61301426 67.6875089,1.88406998 66.9512994,1.33921972 C65.8715466,0.587323025 64.4924534,0.418716667 63.1777298,0.432808611 C61.8630062,0.446900556 60.5427654,0.620156327 59.2379023,0.458456728 C58.1688077,0.325973889 57.1028674,-0.0304352469 56.0372378,0.127537037 C54.6793472,0.328838981 53.5559644,1.35557201 52.8868766,2.55680923 C52.2177888,3.75804645 51.9306955,5.12918336 51.6522948,6.47632775 L50.8951643,10.1402303 C50.6603339,11.2766152 50.4245386,12.4432019 50.6058127,13.5893916 C50.981594,15.9654575 53.0782233,17.8541194 53.222687,20.2554861 C53.5024161,18.9085254 54.4387797,17.7926024 55.7148516,17.285418 C55.8723681,17.2082187 56.0512456,17.186471 56.2226103,17.2236852 C56.430912,17.2904147 56.5526585,17.4989886 56.6841222,17.6741425 C57.0285595,18.1330782 58.1105765,18.8293735 58.7239154,18.5038008 C59.2726965,18.2125015 58.8629963,17.2980669 59.5529642,16.8290839 Z" id="Path" fill="#2F2E41"></path>
                            <path d="M38.7743849,54.4693351 C38.7743849,54.4693351 37.3668481,63.3364733 43.1980292,62.5303704 C43.1980292,62.5303704 46.2141576,62.1273174 46.6163063,62.5303704 C47.018455,62.9334234 61.8980244,60.3135851 63.9087767,58.0968118 C63.9087767,58.0968118 66.3216806,57.2907088 67.5281296,58.4998647 C68.7345786,59.7090206 80.7990954,60.9181765 77.1797424,57.2907088 C73.5603895,53.6632411 67.9302813,52.8571502 67.9302813,52.8571502 L60.2894237,53.2602002 C60.2894237,53.2602002 56.2679191,54.469356 53.8550152,53.2602002 C51.4421112,52.0510443 44.605554,52.4540972 44.605554,52.4540972 L38.7743849,54.4693351 Z" id="Path" fill="#A0616A"></path>
                            <path d="M47.0184699,26.457226 C47.0184699,26.457226 37.9700846,27.4648554 37.9700846,40.5640378 L37.9700846,57.2906849 C37.9700846,57.2906849 42.9969653,55.0738996 44.0023415,55.275426 C45.0077176,55.4769525 49.0292222,52.6555908 49.0292222,52.6555908 C49.0292222,52.6555908 53.6539513,41.7731937 53.2518026,38.7503055 C52.849654,35.7274172 53.0507268,26.860276 47.0184699,26.457226 Z" id="Path" fill="#575A89"></path>
                            <ellipse id="Oval" fill="#2F2E41" cx="61.4958847" cy="10.8389686" rx="7.74139545" ry="4.03051765"></ellipse>
                            <ellipse id="Oval" fill="#2F2E41" cx="54.2571788" cy="11.5443083" rx="2.71451471" ry="6.75111617"></ellipse>
                        </g>
                        <g id="tl-logo" transform="translate(84.000000, 40.000000)">
                            <path d="M0.161130352,17.4971165 L0.161130352,14.754047 C0.161618428,14.5581328 0.219755094,14.3660327 0.329343065,14.1983948 C0.463864213,14.0062993 0.65389585,13.8529405 0.877868613,13.7557253 L6.91365156,10.8459602 C7.45897158,10.6014913 8.0325222,10.4150807 8.62328958,10.290308 C8.30298269,10.2162211 8.00069307,10.1347254 7.71842262,10.0495254 C7.4425101,9.96382872 7.17468458,9.85727813 6.9176554,9.73095153 L0.877868613,6.83785598 C0.65389585,6.74064078 0.463864213,6.58728198 0.329343065,6.39518643 C0.217370222,6.22374666 0.159146514,6.02686992 0.161130352,5.82656906 L0.161130352,3.08535176 L13.327797,9.51239501 L13.327797,11.0645167 L0.161130352,17.4971165 Z" id="arrow" fill="#fa1e5a"></path>
                            <path d="M14.2255792,16.325927 C14.2237807,15.9683373 14.2928649,15.613778 14.4290321,15.2817499 C14.5590758,14.9691257 14.752051,14.6850856 14.9965586,14.4464081 C15.2442709,14.208868 15.5346414,14.0177417 15.8532024,13.8825525 C16.1914098,13.7412397 16.5560785,13.6701196 16.924007,13.673717 C17.2848205,13.6721017 17.6420848,13.7431997 17.9733956,13.8825525 C18.293951,14.0141742 18.5849742,14.20573 18.8300394,14.4464081 C19.0738349,14.6856522 19.2667096,14.9695442 19.3975659,15.2817499 C19.5418865,15.6117273 19.614795,15.9672048 19.6117268,16.325927 C19.6157935,16.6847409 19.5428443,17.0404167 19.3975659,17.3701042 C19.2621423,17.6799327 19.0698091,17.9630278 18.8300394,18.205446 C18.5850191,18.4435674 18.2938029,18.6317006 17.9733956,18.7588599 C17.6414916,18.8963617 17.2846225,18.9673811 16.924007,18.9677047 C16.5563386,18.9686457 16.1922138,18.8976316 15.8532024,18.7588599 C15.5339382,18.6295984 15.2431182,18.4417212 14.9965586,18.205446 C14.749105,17.9691285 14.5556983,17.6844534 14.4290321,17.3701042 C14.2923944,17.0382102 14.2232926,16.6835603 14.2255792,16.325927 Z" id="point" fill="#fa1e5a"></path>
                            <polygon id="Shape" fill="#fa1e5a" points="35.1174226 3.37053011 28.8884031 3.37053011 28.8884031 0.144175294 45.047494 0.144175294 45.047494 3.37053011 38.8203881 3.37053011 38.8203881 18.9677047 35.1174226 18.9677047"></polygon>
                            <path d="M47.1503386,13.8769889 C47.3802729,15.5631847 48.894332,16.7709176 51.3495629,16.7709176 C52.6356362,16.7709176 54.3211717,16.3001718 55.1220447,15.4995182 L57.3492898,17.6217326 C55.8644597,19.1323633 53.4365091,19.8500576 51.2930536,19.8500576 C46.4371525,19.8500576 43.5512819,16.956129 43.5512819,12.5766503 C43.5512819,8.42868589 46.4644328,5.43829294 51.0358389,5.43829294 C55.7494925,5.43829294 58.6918724,8.26083802 58.1501628,13.8750596 L47.1503386,13.8769889 Z M54.8005263,11.0833831 C54.5783864,9.31229877 53.1500655,8.4267566 51.1508061,8.4267566 C49.2645652,8.4267566 47.7212772,9.31036948 47.2087965,11.0814538 L54.8005263,11.0833831 Z" id="Shape" fill="#fa1e5a"></path>
                            <path d="M72.8770394,17.6968633 C71.2160566,19.2376106 69.4676536,19.8500576 67.3417545,19.8500576 C63.1694292,19.8500576 59.7103728,17.4753809 59.7103728,12.6432123 C59.7103728,7.81104373 63.1773764,5.43829294 67.3417545,5.43829294 C69.3802334,5.43829294 70.9537961,5.99103602 72.5273588,7.45281999 L70.2842373,9.68882945 C69.4874203,9.00542221 68.4632483,8.62321344 67.3993723,8.6122323 C65.0151864,8.6122323 63.2647966,10.2704615 63.2647966,12.6432123 C63.2647966,15.2393715 65.1284352,16.6202662 67.3417545,16.6202662 C68.4782164,16.6202662 69.6146784,16.3159686 70.4868931,15.487817 L72.8770394,17.6968633 Z" id="Shape" fill="#fa1e5a"></path>
                            <path d="M79.6812066,0.144175294 L79.6812066,7.51226932 C80.9482999,5.97975078 82.5041726,5.52205858 84.1170154,5.52205858 C88.1481401,5.52205858 89.9338576,8.07688141 89.9338576,11.976644 L89.9338576,18.9677047 L86.4213571,18.9677047 L86.4213571,12.002905 C86.4213571,9.58313892 85.0678265,8.56083463 83.1956716,8.56083463 C81.1211746,8.56083463 79.6812066,10.2021489 79.6812066,12.1904838 L79.6812066,18.9677047 L76.1687061,18.9677047 L76.1687061,0.144175294 L79.6812066,0.144175294 Z" id="Shape" fill="#fa1e5a"></path>
                            <polygon id="Shape" fill="#000A12" points="96.2650138 0.144175294 96.2650138 15.686952 106.990676 15.686952 106.990676 18.9677047 92.327797 18.9677047 92.327797 0.144175294"></polygon>
                            <path d="M121.538919,5.772999 L124.945221,5.772999 L124.945221,19.4398099 L121.59847,19.4398099 L121.423788,17.4385155 C120.607943,19.0453519 118.36685,19.8226663 116.766921,19.8497369 C112.516984,19.8826084 109.384615,17.3882414 109.384615,12.5928691 C109.384615,7.88064245 112.673801,5.41334608 116.864187,5.43848311 C118.785691,5.43848311 120.617868,6.29894305 121.429743,7.65634278 L121.538919,5.772999 Z M112.925899,12.5928691 C112.925899,15.199386 114.817627,16.7501475 117.173851,16.7501475 C122.761694,16.7501475 122.761694,8.46266142 117.173851,8.46266142 C114.817627,8.46266142 112.925899,9.9882859 112.925899,12.5928691 Z" id="Shape" fill="#000A12"></path>
                            <path d="M131.485059,0.144175294 L131.485059,7.71621766 C132.330248,6.30782552 134.68527,5.53398368 136.197087,5.53398368 C140.387321,5.53398368 143.498252,7.97545467 143.498252,12.6920207 C143.498252,17.1841725 140.323832,19.8500576 136.109791,19.8500576 C134.365844,19.8500576 132.590154,19.2948261 131.485059,17.6581506 L131.25293,19.5443901 L127.937646,19.5443901 L127.937646,0.144175294 L131.485059,0.144175294 Z M131.719172,12.680413 C131.719172,15.1489685 133.637712,16.702456 135.885598,16.702456 C138.155307,16.702456 139.958774,15.0657805 139.958774,12.680413 C139.958774,10.2118576 138.155307,8.68738916 135.885598,8.68738916 C133.637712,8.68738916 131.719172,10.2950456 131.719172,12.680413 Z" id="Shape" fill="#000A12"></path>
                            <path d="M155.324798,9.42877092 C154.349141,8.52132088 153.232745,8.22011653 151.92236,8.22011653 C150.305773,8.22011653 149.413798,8.71508928 149.413798,9.56306585 C149.413798,10.4110424 150.222091,10.9386297 151.979416,11.0479841 C154.571659,11.212975 157.861888,11.7904432 157.861888,15.3933844 C157.861888,17.7876712 155.882045,19.8500576 151.950888,19.8500576 C149.777054,19.8500576 147.601319,19.4912983 145.592949,17.4289119 L147.266591,15.0365436 C148.576977,16.3794929 150.473137,16.9070801 152.006042,16.9339391 C153.289801,16.9607981 154.487977,16.4389664 154.487977,15.4490209 C154.487977,14.5147118 153.708212,13.9909616 151.754995,13.8816072 C149.162752,13.6897573 146.068415,12.7535297 146.068415,9.6724203 C146.068415,6.53759288 149.358644,5.43829294 151.867205,5.43829294 C154.014412,5.43829294 155.630999,5.85077023 157.220959,7.22633404 L155.324798,9.42877092 Z" id="Shape" fill="#000A12"></path>
                        </g>
                    </g>
                </g>
            </g>
        </g>
    </g>
</svg>