<svg width="35" height="44" viewBox="0 0 35 44" fill="none" xmlns="http://www.w3.org/2000/svg">
<path d="M22.9428 30.0039C22.6374 30.0039 22.332 29.8901 22.103 29.6246C21.6831 29.1694 21.7213 28.4487 22.1794 28.0315L24.6987 25.8315L22.1794 23.6315C21.7213 23.2142 21.6831 22.4935 22.103 22.0384C22.5229 21.5832 23.2482 21.5452 23.7062 21.9625L27.1799 25.0349C27.409 25.2625 27.5617 25.5659 27.5617 25.8694C27.5617 26.1728 27.409 26.5142 27.1799 26.7039L23.7062 29.7763C23.5154 29.8901 23.2482 30.0039 22.9428 30.0039Z" fill="#303030"/>
<path d="M11.4138 30.0036C11.1466 30.0036 10.8794 29.9277 10.6503 29.7001L7.17665 26.6277C6.94761 26.4001 6.79492 26.0967 6.79492 25.7932C6.79492 25.4898 6.94761 25.1484 7.17665 24.9587L10.6503 21.8863C11.1084 21.4691 11.8337 21.507 12.2536 21.9622C12.6735 22.4174 12.6353 23.138 12.1772 23.5553L9.65785 25.7932L12.1772 27.9932C12.6353 28.4105 12.6735 29.1311 12.2536 29.5863C12.0245 29.8518 11.7192 30.0036 11.4138 30.0036Z" fill="#303030"/>
<path d="M15.2679 32.6206C15.1534 32.6206 15.0389 32.6206 14.9243 32.5448C14.3136 32.3551 14.0082 31.7103 14.1991 31.1034L18.0163 19.7241C18.2072 19.1172 18.8561 18.8137 19.4669 19.0034C20.0776 19.1931 20.383 19.8379 20.1921 20.4448L16.3749 31.8241C16.184 32.3172 15.7641 32.6206 15.2679 32.6206Z" fill="#303030"/>
<path fill-rule="evenodd" clip-rule="evenodd" d="M28.5529 44H4.19896C2.25217 44 0 41.8379 0 39.069V4.93103C0 2.2 2.214 0 4.96241 0H25.5755C27.9422 0 30.118 0.910345 31.8357 2.54138C33.439 4.17241 34.3551 6.29655 34.3933 8.57241V8.72414C34.3933 8.87586 34.3551 9.02759 34.2788 9.17931C34.0879 9.55862 33.668 9.86207 33.2099 9.86207H33.0573H29.3927C26.6443 9.86207 24.4303 7.66207 24.4303 4.93103V2.27586H4.96241C3.47368 2.27586 2.29034 3.45172 2.29034 4.93103V39.069C2.29034 40.5862 3.55003 41.7241 4.19896 41.7241H28.5529C30.6142 41.7241 31.9884 40.6621 31.9884 39.069L32.0266 13.6552C32.0266 13.0103 32.5228 12.5172 33.1718 12.5172C33.8207 12.5172 34.3169 13.0103 34.3169 13.6552L34.2788 39.069C34.2788 41.9138 31.8739 44 28.5529 44ZM29.3928 7.58628H31.9504C31.7214 6.29662 31.1106 5.12076 30.1563 4.17248C29.202 3.22421 28.0186 2.61731 26.7208 2.38972V4.9311C26.7208 6.41041 27.9041 7.58628 29.3928 7.58628Z" fill="#303030"/>
</svg>
