<svg width="41" height="39" viewBox="0 0 41 39" fill="none" xmlns="http://www.w3.org/2000/svg">
<path d="M20.4995 7.21392C22.4916 7.21392 24.1065 5.59903 24.1065 3.60696C24.1065 1.61489 22.4916 0 20.4995 0C18.5075 0 16.8926 1.61489 16.8926 3.60696C16.8926 5.59903 18.5075 7.21392 20.4995 7.21392Z" fill="#464646"/>
<path d="M26.3551 4.93164C25.7488 7.60945 23.3599 9.61925 20.5014 9.61925C17.6429 9.61925 15.254 7.60945 14.6477 4.93164C12.4975 5.41075 10.8828 7.32646 10.8828 9.61925V14.4286C10.8828 15.7542 11.9619 16.8333 13.2875 16.8333C14.6131 16.8333 15.6921 15.7542 15.6921 14.4286V12.0239H25.3107V14.4286C25.3107 15.7542 26.3898 16.8333 27.7154 16.8333C29.041 16.8333 30.1201 15.7542 30.1201 14.4286V9.61925C30.12 7.32646 28.5052 5.41075 26.3551 4.93164Z" fill="#464646"/>
<path d="M39.1357 29.3843C37.4104 28.3882 35.2045 28.9792 34.2084 30.7045C33.2124 32.4296 33.8035 34.6357 35.5288 35.6316C37.2539 36.6277 39.5401 36.0365 40.536 34.3114C41.5321 32.5862 40.8608 30.3803 39.1357 29.3843Z" fill="#464646"/>
<path d="M36.9344 21.1735L32.7695 18.7688C31.6214 18.106 30.1475 18.501 29.4847 19.649C28.8219 20.7971 29.2168 22.271 30.3649 22.9339L32.4474 24.1361L27.6381 32.4661L25.5556 31.2638C24.4075 30.601 22.9336 30.996 22.2708 32.144C21.608 33.2921 22.0029 34.766 23.151 35.4288L27.3159 37.8335C29.3016 38.9799 31.768 38.5393 33.2579 36.9168C31.242 35.0529 30.6959 31.9791 32.1251 29.5035C33.5543 27.0278 36.4894 25.964 39.1116 26.7778C39.7719 24.6763 38.9201 22.3199 36.9344 21.1735Z" fill="#464646"/>
<path d="M6.79182 30.7045C5.79572 28.9792 3.58981 28.3882 1.86453 29.3843C0.139405 30.3803 -0.53197 32.5863 0.464202 34.3115C1.46013 36.0367 3.74636 36.6278 5.47149 35.6317C7.19677 34.6356 7.78783 32.4296 6.79182 30.7045Z" fill="#464646"/>
<path d="M18.7291 32.144C18.0663 30.9959 16.5923 30.6011 15.4443 31.2638L13.3618 32.4661L8.55245 24.1361L10.635 22.9338C11.783 22.271 12.1779 20.797 11.5152 19.649C10.8524 18.5009 9.37838 18.1061 8.23038 18.7688L4.06552 21.1735C2.07974 22.3199 1.22803 24.6762 1.88835 26.7778C4.51051 25.964 7.44562 27.0279 8.87485 29.5035C10.3041 31.9791 9.75795 35.0528 7.74206 36.9168C9.23192 38.5393 11.6983 38.98 13.6841 37.8336L17.849 35.4288C18.997 34.766 19.3919 33.292 18.7291 32.144Z" fill="#464646"/>
</svg>
