<svg width="40" height="32" viewBox="0 0 40 32" fill="none" xmlns="http://www.w3.org/2000/svg">
<path d="M33.6577 28.3281H26.9127H12.9197C12.3363 28.3281 11.8633 28.8011 11.8633 29.3845V30.0347C11.8633 30.6181 12.3362 31.0913 12.9197 31.0913H26.9128H33.6578H37.1521V28.3283L33.6577 28.3281Z" fill="#303030"/>
<path d="M10.7236 11.6973C13.9537 11.6973 16.5723 9.07874 16.5723 5.84863C16.5723 2.61852 13.9537 0 10.7236 0C7.49352 0 4.875 2.61852 4.875 5.84863C4.875 9.07874 7.49352 11.6973 10.7236 11.6973Z" fill="#303030"/>
<path d="M24.9926 20.1935L11.5899 20.1861L11.2725 20.1851V18.6298L11.2615 17.328C11.2615 14.2183 8.74055 11.6973 5.63076 11.6973C5.5254 11.6973 5.42076 11.7008 5.31677 11.7065L5.30885 11.6973C2.37687 11.6974 0 14.0742 0 17.0062V31.9999H11.2725V25.6126L11.1234 25.6008C11.1128 25.5999 11.1102 25.6009 11.1036 25.6009C10.3409 25.6009 9.60995 25.2799 9.09485 24.7175L4.51952 19.7233C4.37365 19.5641 4.38447 19.3169 4.54369 19.1712C4.70277 19.0253 4.95004 19.0362 5.09581 19.1953L9.67108 24.1895C10.0428 24.5954 10.5671 24.8436 11.1192 24.8516C11.1559 24.8521 11.6571 24.8593 11.6571 24.8593H24.9926C26.281 24.8593 27.3255 23.8148 27.3255 22.5264C27.3255 21.238 26.281 20.1935 24.9926 20.1935Z" fill="#303030"/>
<path d="M38.8521 11.916C38.3066 11.7291 37.7128 12.02 37.5257 12.5656L33.0978 25.4921H17.2532C16.6767 25.4921 16.209 25.9595 16.209 26.5362C16.209 27.1129 16.6767 27.5804 17.2532 27.5804H33.8312C34.1863 27.5804 34.4998 27.4026 34.6882 27.1315C34.7534 27.0455 34.8065 26.9484 34.8436 26.8406L39.5022 13.2419C39.6885 12.6966 39.3979 12.1028 38.8521 11.916Z" fill="#303030"/>
</svg>
