<?xml version="1.0" encoding="UTF-8"?>
<svg width="101px" height="100px" viewBox="0 0 101 100" version="1.1" xmlns="http://www.w3.org/2000/svg" xmlns:xlink="http://www.w3.org/1999/xlink">
    <!-- Generator: Sketch 53.2 (72643) - https://sketchapp.com -->
    <title>Group 6</title>
    <desc>Created with Sketch.</desc>
    <g id="Page-1" stroke="none" stroke-width="1" fill="none" fill-rule="evenodd">
        <g id="location" transform="translate(-1114.000000, -1183.000000)">
            <g id="TechLabs-locations" transform="translate(-379.000000, 745.000000)">
                <g id="Group-4" transform="translate(1168.267597, 183.000000)">
                    <g id="Group-6" transform="translate(325.000000, 255.000000)">
                        <g id="Group-5" fill="#FFFFFF" fill-opacity="0.01">
                            <rect id="Rectangle" x="0" y="0" width="100" height="100"></rect>
                        </g>
                        <g id="noun_Sagrada-Familia_1206686" transform="translate(32.000000, 20.000000)">
                            <g id="Group" transform="translate(0.370713, 0.186536)">
                                <path d="M19.1862497,28.8182746 C19.2482478,29.158061 19.287625,29.3739055 19.287625,29.3739055 C19.8531483,30.7693064 19.287625,32.2178252 19.287625,32.2178252 L20.1614632,40.4384645 C20.3742675,40.6526226 20.6440431,41.382784 20.8518205,42.0370626 L21.5329619,30.2954603 C21.5329619,30.2954603 21.5606097,29.8663007 21.6125541,29.1150608 C20.9238724,28.844412 20.0483585,28.6386853 19.1862497,28.8182746 Z" id="Path"></path>
                                <path d="M13.8795467,29.1142176 C13.9323289,29.8663007 13.9591389,30.2946171 13.9591389,30.2946171 L14.6402803,42.0362195 C14.8488955,41.382784 15.1186711,40.6517795 15.3323132,40.4376213 L16.2061514,32.216982 C16.2061514,32.216982 15.6397903,30.7684632 16.2061514,29.3730624 C16.2061514,29.3730624 16.2446908,29.1572179 16.3075267,28.8174315 C15.4437422,28.6386853 14.5690662,28.844412 13.8795467,29.1142176 Z" id="Path"></path>
                                <path d="M28.6719604,53.7913121 C29.8666807,53.8849009 30.3475849,55.4700088 30.3475849,55.4700088 L31.0672657,59.5727402 L35.3417839,59.5727402 L33.801885,33.0053202 C33.801885,33.0053202 32.4831684,12.4225257 30.9265132,7.41763188 C31.1393175,7.27682709 31.2817456,7.03484519 31.2817456,6.75998074 C31.2817456,6.32576236 30.9332157,5.59560096 30.5025802,5.59560096 C30.0719447,5.59560096 29.7234148,6.32576236 29.7234148,6.75998074 C29.7234148,7.03484519 29.8641672,7.27682709 30.0786472,7.41763188 C29.3355077,9.80709771 28.6451504,15.7520954 28.1282202,21.3109339 C27.5425894,14.3271846 26.6344009,5.3047168 25.6357287,2.09571647 C25.8711539,1.9414214 26.026987,1.67498837 26.026987,1.37145707 C26.026987,0.89423842 25.6424311,0.0890373395 25.1682294,0.0890373395 C24.6957033,0.0890373395 24.3111474,0.893395277 24.3111474,1.37145707 C24.3111474,1.67498837 24.4669805,1.9414214 24.7007301,2.09571647 C23.3309071,6.50282228 22.1286464,21.8657216 21.6996866,27.8663668 C20.5920987,27.4684035 19.6085071,27.5324823 18.9834991,27.6555811 C18.7732083,26.4279657 18.5394586,24.9237995 18.5687821,24.5123459 L18.1574162,23.5309281 L17.7460504,23.5309281 L17.7460504,23.5309281 L17.3346846,23.5309281 L16.9241566,24.5123459 C16.9526422,24.9237995 16.7188925,26.4279657 16.5094395,27.6555811 C15.8835937,27.5324823 14.9000021,27.4684035 13.7924142,27.8663668 C13.3634544,21.8657216 12.1603559,6.50282228 10.7905328,2.09571647 C11.0251203,1.9414214 11.1809534,1.67498837 11.1809534,1.37145707 C11.1809534,0.89423842 10.7963975,0.0890373395 10.3230336,0.0890373395 C9.84799402,0.0890373395 9.46511381,0.893395277 9.46511381,1.37145707 C9.46511381,1.67498837 9.6209469,1.9414214 9.85553433,2.09571647 C8.85769991,5.3047168 7.94867358,14.3271846 7.3630428,21.3109339 C6.84611262,15.7529386 6.15659311,9.80709771 5.41261581,7.41763188 C5.62709575,7.27682709 5.76784821,7.03484519 5.76784821,6.75998074 C5.76784821,6.32576236 5.41931831,5.59560096 4.98952061,5.59560096 C4.55888509,5.59560096 4.20951737,6.32576236 4.20951737,6.75998074 C4.20951737,7.03484519 4.35194546,7.27682709 4.56474978,7.41763188 C3.00893237,12.4225257 1.69021584,33.0053202 1.69021584,33.0053202 L0.149479057,59.5727402 L4.42483513,59.5727402 L5.14451588,55.4700088 C5.14451588,55.4700088 5.62542013,53.8849009 6.82097825,53.7913121 C8.01653638,53.8849009 8.49911625,55.4700088 8.49911625,55.4700088 L9.21712138,59.5727402 L9.82956215,59.5727402 L10.0834193,59.5727402 L10.5618101,59.5727402 L11.2948958,59.5727402 L13.8284402,59.5727402 L15.2678017,51.3664343 C15.2678017,51.3664343 15.9782665,49.0233413 17.7460504,48.8859091 C19.5146721,49.0233413 20.2242991,51.3664343 20.2242991,51.3664343 L21.6636606,59.5727402 L24.1963672,59.5727402 L24.9294529,59.5727402 L25.4086815,59.5727402 L25.6625386,59.5727402 L26.2741416,59.5727402 L26.9921467,55.4700088 C26.9929845,55.4700088 27.4755644,53.8849009 28.6719604,53.7913121 Z M16.2053136,29.3747487 C15.6389525,30.7701495 16.2053136,32.2186683 16.2053136,32.2186683 L15.3314754,40.4393076 C15.1186711,40.6534658 14.8480577,41.3836272 14.6394425,42.0379058 L13.9583011,30.2963034 C13.9583011,30.2963034 13.9314911,29.8671439 13.8787089,29.1159039 C14.5682284,28.8452552 15.4429044,28.6403716 16.3058511,28.8199609 C16.2446908,29.158061 16.2053136,29.3747487 16.2053136,29.3747487 Z M21.5337997,30.2954603 L20.8526583,42.0370626 C20.6448809,41.3836272 20.3751053,40.6526226 20.162301,40.4384645 L19.2884628,32.2178252 C19.2884628,32.2178252 19.8539861,30.7693064 19.2884628,29.3739055 C19.2884628,29.3739055 19.2490856,29.158061 19.1870875,28.8182746 C20.0491964,28.6386853 20.9247102,28.8435689 21.6133919,29.1142176 C21.5614475,29.8663007 21.5337997,30.2954603 21.5337997,30.2954603 Z" id="Shape" fill="#FB1D5C" fill-rule="nonzero"></path>
                            </g>
                        </g>
                    </g>
                </g>
            </g>
        </g>
    </g>
</svg>