<?xml version="1.0" encoding="utf-8"?>
<!-- Generator: Adobe Illustrator 24.1.0, SVG Export Plug-In . SVG Version: 6.00 Build 0)  -->
<svg version="1.1" id="Ebene_1" xmlns="http://www.w3.org/2000/svg" xmlns:xlink="http://www.w3.org/1999/xlink" x="0px" y="0px"
	 viewBox="0 0 100 100" style="enable-background:new 0 0 100 100;" xml:space="preserve">
<style type="text/css">
	.st0{display:none;fill-rule:evenodd;clip-rule:evenodd;fill:url(#SVGID_1_);}
	.st1{fill-rule:evenodd;clip-rule:evenodd;fill:#FB1D5C;}
	.st2{fill:#FFFFFF;}
	.st3{fill:none;stroke:#FFFFFF;}
	.st4{fill:none;stroke:#FFFFFF;stroke-miterlimit:10;}
	.st5{fill:none;stroke:#999999;}
	.st6{fill:none;stroke:#ECECEC;}
</style>
<radialGradient id="SVGID_1_" cx="208.5979" cy="-30.8157" r="40.3267" gradientTransform="matrix(0.8383 0 0 -0.8383 -120.9736 14.8518)" gradientUnits="userSpaceOnUse">
	<stop  offset="0" style="stop-color:#6A6A6A"/>
	<stop  offset="1" style="stop-color:#000000"/>
</radialGradient>
<path class="st0" d="M88.3,48.4c0,20.4-16.5,36.9-36.9,36.9c-20.4,0-36.9-16.5-36.9-36.9c0-20.4,16.5-36.9,36.9-36.9
	C71.8,11.5,88.3,28.1,88.3,48.4z"/>
<path class="st1" d="M51.4,11.5c-8.1,0-15.5,2.6-21.6,7c-2.6,3.2-4.5,6.4-4.5,6.4l-3.4,1.3c-4.7,6.2-7.5,13.9-7.5,22.3
	c0,0.8,0,1.6,0.1,2.3c0.8,1.5,1.5,2.5,1.5,2.5l-0.4,4.2c2.4,9.6,8.6,17.8,16.9,22.7c0.6,0.4,1.1,0.6,1.6,0.9
	c-0.3-0.3-0.4-0.3-0.6-0.5c-2.2-2.2-4-4.9-4-4.9l5.3-4.8c0,0,3.4,2.6,7.2,3.9c3.8,1.3,8,1.4,8,1.4l2.6,6.7c0,0-2.3,1.2-5.6,1.8
	c-0.6,0.1-1.2,0.2-1.8,0.3c2,0.3,4.1,0.5,6.2,0.5c8.5,0,16.4-2.9,22.7-7.8c2-2.6,3.2-4.9,3.2-4.9l2.9-1.1c5.1-6.3,8.1-14.2,8.2-22.9
	c-1-3-2.1-4.7-2.1-4.7s0.3-2.7-0.1-5.7c-0.1-0.5,0.3-0.3,0.6-0.6c-0.1-0.4-0.5-1.7-0.7-2.3c-0.8-2.4-1.6-3.5-2.1-4.6c1,0.6,0,0,0,0
	C77.6,19.3,65.4,11.5,51.4,11.5L51.4,11.5z M55.8,12.9c3.1,0,6.3,1,6.3,1c0,0,3.6,1.4,6.2,3.4c2.6,2,4.2,4.5,4.2,4.5l-6.6,4.6
	c0,0-3.6-2.4-7.3-3.7c-3.7-1.3-7.6-1.5-7.6-1.5l-1.9-6.8c0,0,2.8-1.3,6.1-1.4C55.4,12.9,55.6,12.9,55.8,12.9L55.8,12.9z M34.3,31.2
	c2.3,0,4.2,0.3,4.2,0.3L41.8,46l-11,10.4c0,0-3.4-2.2-5.9-4.3s-4-4.2-4-4.2c0,0,0.4-4.2,1.5-7.8c1-3.6,2.6-6.6,2.6-6.6
	c0,0,2.7-1.6,6.1-2.1C32.1,31.2,33.2,31.2,34.3,31.2L34.3,31.2z M69.8,41.5c0,0,3.1,1.4,5.6,3.3c2.5,2,4.4,4.6,4.4,4.6
	s-0.2,3.6-1.4,7.4c-1.2,3.8-3.4,7.6-3.4,7.6s-3.1,1.1-6.3,1.4c-3.3,0.3-6.7-0.2-6.7-0.2l-1.7-7.1l-1.7-7.3c0,0,2.3-2.8,5.1-5.2
	C66.5,43.6,69.8,41.5,69.8,41.5L69.8,41.5z"/>
<g>
	<path class="st2" d="M79.5,49.6c0,0-0.2,3.5-1.3,7.2c-1.2,3.7-3.3,7.4-3.3,7.4s-3,1.1-6.2,1.4c-3.2,0.3-6.5-0.2-6.5-0.2l-1.7-6.9
		l-1.7-7.1c0,0,2.3-2.7,5-5.1c2.7-2.4,6-4.4,6-4.4s3,1.3,5.4,3.3C77.6,47,79.5,49.6,79.5,49.6L79.5,49.6z"/>
	<path class="st2" d="M30.9,56.1c0,0-3.3-2.1-5.7-4.2c-2.4-2.1-3.9-4.1-3.9-4.1s0.4-4.1,1.4-7.6c1-3.5,2.5-6.5,2.5-6.5
		s2.6-1.5,5.9-2c3.3-0.5,7.2,0.1,7.2,0.1l3.3,14.1L30.9,56.1L30.9,56.1z"/>
</g>
<path class="st2" d="M61.9,14.7c0,0,3.2,1.2,5.5,3c2.3,1.7,3.6,4,3.6,4l-5.8,4c0,0-3.1-2.1-6.4-3.3c-3.3-1.2-7.8-1.6-7.8-1.6l-1.5-6
	c0,0,3.2-1.1,6-1.2C58.4,13.4,61.9,14.7,61.9,14.7L61.9,14.7z"/>
<path class="st3" d="M38.2,31.6c0,0,5.9-7.9,12.9-10.6"/>
<g>
	<path class="st4" d="M65.9,26.3c0,0,4.5,7.3,3.9,15.3"/>
	<path class="st4" d="M72,21.8c0,0,9.8,3.9,14.1,16.1"/>
	<path class="st4" d="M79.8,49.5c0,0,3.5-0.3,6.5-5.4"/>
	<path class="st4" d="M77.3,72.7c0,0,0.5-3-2.4-8.4"/>
	<path class="st4" d="M50,76.2c0,0,5.3-1.4,12-10.7"/>
	<path class="st4" d="M30.8,56.3c0,0-0.3,8.3,3.8,14.8"/>
	<path class="st4" d="M29.5,75.7c0,0-1.2,0-5.8-2.8"/>
	<path class="st4" d="M21.1,47.9c0,0-3.3,1.4-5.1,5.2"/>
	<path class="st4" d="M25.2,24.9c0,0-1.2,4.6-0.2,8.4"/>
	<path class="st4" d="M29.2,19.1c0,0,9.9-8.3,19.9-4.6"/>
	<path class="st4" d="M52.5,82.8c0,0,8.6,2.2,21.8-5.6"/>
</g>
<path class="st5" d="M41.9,46c0,0,4.3,1,16.6,5.4"/>
<path class="st6" d="M41.9,45.8c0,0,4.3,1,16.6,5.4"/>
</svg>
