<?xml version="1.0" encoding="UTF-8"?>
<svg width="101px" height="100px" viewBox="0 0 101 100" version="1.1" xmlns="http://www.w3.org/2000/svg" xmlns:xlink="http://www.w3.org/1999/xlink">
    <!-- Generator: Sketch 53.2 (72643) - https://sketchapp.com -->
    <title>Group 5</title>
    <desc>Created with Sketch.</desc>
    <g id="Page-1" stroke="none" stroke-width="1" fill="none" fill-rule="evenodd">
        <g id="location" transform="translate(-601.000000, -1183.000000)">
            <g id="TechLabs-locations" transform="translate(-379.000000, 745.000000)">
                <g id="Group-4" transform="translate(655.267597, 183.000000)">
                    <g id="Group-5" transform="translate(325.000000, 255.000000)">
                        <rect id="Rectangle" fill-opacity="0.01" fill="#FFFFFF" x="0" y="0" width="100" height="100"></rect>
                        <g id="noun_Bike_651641" transform="translate(15.000000, 29.000000)" fill="#FB1D5C" fill-rule="nonzero">
                            <g id="Group">
                                <path d="M69.124291,25.4237498 C66.8102415,18.4761185 59.2510128,14.8114338 52.2317291,16.9491665 L48.3749797,8.32188807 L49.3777346,5.64972217 L52.463134,5.64972217 L52.463134,2.97755628 L41.124291,2.97755628 C40.5072111,2.97755628 40.1215362,4.12277024 40.9700211,4.27546543 L46.6008751,5.57337458 L45.5981202,8.24554047 L21.7634095,8.24554047 L22.7661643,4.80989861 C23.5375142,2.29042791 27.6256684,2.90120868 29.7083131,2.90120868 L29.7083131,0.229042791 C26.1601037,0.229042791 21.5320045,-0.381737985 20.2207098,4.04642264 L16.3639605,16.4910809 C10.1160266,15.1931718 3.94522768,18.5524661 1.39977313,24.2021882 C-1.45422136,30.9207768 1.63117809,38.6318841 8.41905688,41.5330927 C15.2069357,44.3579538 22.9975693,41.30405 25.9286988,34.5854614 C28.7826932,27.8668729 25.6972938,20.1557656 18.755145,17.2545569 L19.7578999,13.818915 L32.0223627,27.2560921 C32.0223627,27.4087873 32.0223627,27.4851349 32.0223627,27.7905253 C32.0223627,30.0809532 33.7964673,31.8369479 36.1105169,31.8369479 C36.2647869,31.8369479 36.2647869,31.8369479 36.3419219,31.8369479 L37.6532167,34.280071 L36.3419219,35.043547 L37.2675417,36.7231941 L41.7413709,34.280071 L40.8157511,32.6004239 L39.2730514,33.5165951 L38.5017015,31.9896431 L43.2069357,31.9896431 C44.7496354,39.6244028 52.771674,44.4343014 60.4851726,41.8384831 C67.5815913,39.8534456 71.4383406,32.3713811 69.124291,25.4237498 Z M23.4603792,33.898333 C20.9920596,39.2426648 14.6669908,41.6094403 9.34467671,39.2426648 C3.94522768,36.7995417 1.5540431,30.6153864 3.94522768,25.2710546 C6.02787231,20.9955892 10.7331065,18.3997709 15.4383406,19.315942 L12.3529412,29.164782 C11.8129963,30.8444292 14.4355858,31.6079051 14.8983957,29.928258 L18.0609302,19.9267228 C23.6146492,22.3698459 25.8515638,28.6303489 23.4603792,33.898333 Z M31.8680927,23.1333219 L32.0994977,22.9806267 L32.7165775,24.1258406 L31.8680927,23.1333219 Z M36.4190569,23.8967978 C35.879112,23.8967978 35.4163021,24.049493 34.8763572,24.1258406 L33.8736023,22.2171507 L35.1848971,21.4536747 L34.1821423,19.8503752 L30.6339329,21.7590651 L20.9149246,10.994054 L44.5953654,10.994054 L39.3501864,24.9656642 C38.5788365,24.2785358 37.4989467,23.8967978 36.4190569,23.8967978 Z M43.1298007,29.6228676 L40.5072111,29.6228676 L47.14082,11.9865727 L49.8405445,18.0943805 C45.7523902,20.461156 43.1298007,24.812969 43.1298007,29.6228676 Z M50.9975693,20.461156 L55.0857235,29.4701724 L45.8295252,29.4701724 C45.7523902,25.8054878 47.7578999,22.3698459 50.9975693,20.461156 Z M59.4052828,39.777098 C53.9286988,41.4567451 47.14082,38.0211033 45.9837952,32.2950335 L57.0140982,32.2950335 C57.939718,32.2950335 58.7110679,31.3025148 58.325393,30.3863436 L53.3116189,19.4686372 C58.9424729,17.7889901 64.9590018,20.9955892 66.6559715,26.5689637 C68.3529412,32.1423383 65.1904067,38.0974509 59.4052828,39.777098 Z" id="Shape"></path>
                            </g>
                        </g>
                    </g>
                </g>
            </g>
        </g>
    </g>
</svg>