<?xml version="1.0" encoding="UTF-8"?>
<svg width="56px" height="40px" viewBox="0 0 56 40" version="1.1" xmlns="http://www.w3.org/2000/svg" xmlns:xlink="http://www.w3.org/1999/xlink">
    <!-- Generator: Sketch 55.1 (78136) - https://sketchapp.com -->
    <title>Group 8</title>
    <desc>Created with Sketch.</desc>
    <g id="#playground" stroke="none" stroke-width="1" fill="none" fill-rule="evenodd">
        <g id="location" transform="translate(-1137.000000, -1641.000000)">
            <g id="TechLabs-locations" transform="translate(-379.000000, 745.000000)">
                <g id="Group-4" transform="translate(1168.267597, 611.000000)">
                    <g id="Group-8" transform="translate(325.000000, 255.000000)">
                        <g id="Group-7">
                            <g id="Group-6">
                                <g id="Group-5">
                                    <rect id="Rectangle" x="0" y="0" width="100" height="100"></rect>
                                </g>
                            </g>
                        </g>
                        <g id="noun_Pretzel_2245797" transform="translate(23.000000, 30.000000)" fill="#FB1D5C" fill-rule="nonzero">
                            <path d="M46.0916386,1.46321727 C39.5446291,-1.4150612 32.7955677,0.56849356 28.3707602,3.24743621 C26.284639,4.64670828 23.5707133,7.20931724 23.150209,11.222176 C23.2781315,12.6292908 23.6743634,14.1808423 24.3093839,15.6768413 C25.3904933,14.9415862 26.5096514,14.1494714 27.6156893,13.3665065 C28.9434595,12.4266871 30.3066545,11.4626861 31.5871918,10.6084831 L31.5871918,10.6084831 C35.6301997,7.4635521 41.8413305,8.63865308 44.8629263,13.1044289 C46.9346152,16.1670113 46.5029587,19.4733716 44.7809246,22.3006724 C42.8089497,22.100683 39.7821058,22.225513 37.3437056,21.0961612 C35.3284338,20.1615703 33.3590828,19.1380953 31.8725574,18.0185469 C31.0846859,19.3387382 29.9924243,20.4197266 28.7223832,21.4059487 C32.4596891,24.1796575 37.7071368,25.80114 41.5986057,25.915513 C35.6780887,30.8152528 29.6119367,30.8851837 27.6721064,30.8636162 L27.6721064,30.861002 C27.6130652,30.8570806 27.5166313,30.8577342 27.3913328,30.8596948 C27.2673464,30.8577342 27.1696005,30.8570806 27.1105593,30.861002 L27.1105593,30.8636162 C25.1700729,30.8845301 19.0921128,30.8159063 13.1663476,25.8998276 C12.530671,25.3724046 11.9376353,24.7985789 11.4003607,24.1888074 C14.4921498,25.3011666 19.358454,25.5619371 24.7423525,22.568632 C25.3189879,22.247734 25.8628226,21.9320645 26.3732007,21.616395 C29.3934844,19.6027765 31.6541051,17.5453695 31.9571831,13.7808636 C31.9689913,13.1893917 31.9256945,12.5600134 31.8266365,11.8855394 C30.6838619,12.658701 29.4827022,13.5076755 28.308439,14.3383503 C25.6502744,16.2199497 22.9192924,18.1525267 20.7465775,19.2786107 C20.3739621,19.5145459 19.9810103,19.7400241 19.5683782,19.951124 C15.9524347,21.8033132 11.4213531,20.8138233 9.240766,20.8190518 C8.20557753,18.3544768 8.20164146,15.6448168 9.92105145,13.1037754 C12.7117306,8.9785043 17.6554444,8.56480079 22.087468,10.1960867 C22.695592,6.91913658 24.6341103,4.62252656 26.4912831,3.11933844 C22.1996462,0.418828308 15.2714932,-1.43074664 8.69233916,1.46191015 C1.55688609,4.60095908 -1.45618148,15.1095511 0.667988512,21.9379466 C2.34082158,27.3160922 5.41949045,32.460917 11.8608818,36.5482815 C15.0025279,38.5416397 21.2851641,39.7180478 25.0250941,39.8402635 L27.0856308,39.894509 L27.0856308,39.910848 L27.3926449,39.9036588 L27.700315,39.9121551 L27.700315,39.8958161 L29.7608517,39.8415706 C33.5007816,39.7187013 39.7834178,38.5429468 42.9244079,36.5495886 C49.3657993,32.4615705 52.4457802,27.3173994 54.1179572,21.9392537 C56.2414712,15.1095511 53.2284037,4.60095908 46.0916386,1.46321727 Z M25.7716368,35.9319744 C18.1185895,37.5599925 8.97639277,32.4256247 11.3531278,30.6270275 C14.2304006,28.4480582 15.2682132,32.7210339 21.5718418,34.0242326 C25.0113178,34.7359595 25.677171,34.3961083 26.6841509,34.4666928 C27.4589022,34.5202847 28.4468577,35.36207 25.7716368,35.9319744 Z M31.6324567,36.7802953 C31.4533652,37.1502103 31.0066203,37.3051041 30.635317,37.1260286 C30.2653257,36.9469532 30.1098506,36.5025323 30.2902542,36.1319638 C30.4706577,35.7613952 30.9160905,35.6084622 31.2873939,35.7881912 C31.6573852,35.9666131 31.8122042,36.4116875 31.6324567,36.7802953 Z M33.9527746,33.7412411 C33.568351,33.8739138 33.1491587,33.6726173 33.0166441,33.2896311 C32.8834734,32.907952 33.0855254,32.4903272 33.469949,32.3576545 C33.8537166,32.2243282 34.2729089,32.4269318 34.4060795,32.8092645 C34.5392502,33.1915971 34.3358861,33.609222 33.9527746,33.7412411 Z M37.6264472,36.8659117 C37.1744543,37.021459 36.6798205,36.7835631 36.5223774,36.3326067 C36.3649343,35.8823038 36.605691,35.3895196 37.057684,35.2333187 C37.5096769,35.0758107 38.0043107,35.3150137 38.1617538,35.7653166 C38.3191969,36.2169266 38.0784401,36.7084037 37.6264472,36.8659117 Z M39.5977662,33.1373516 C38.979802,33.3504122 38.3047646,33.0249393 38.0902484,32.4099393 C37.8757321,31.7942857 38.2030826,31.1217724 38.8203908,30.9080583 C39.439011,30.6943441 40.1140484,31.0204706 40.3279086,31.6354706 C40.5430809,32.2517777 40.2157304,32.9236375 39.5977662,33.1373516 Z M43.9832129,33.4177289 C43.4518424,33.6013793 42.8732389,33.3223091 42.6882433,32.7929255 C42.5045596,32.2648489 42.7853332,31.6871019 43.3160477,31.504105 C43.8467622,31.3211082 44.4260216,31.6001784 44.6110173,32.1282549 C44.7940449,32.6576385 44.5139274,33.2340785 43.9832129,33.4177289 Z M45.2119252,29.3721922 C44.7723965,29.5238181 44.293507,29.2924578 44.14,28.8545726 C43.987805,28.4173409 44.2200336,27.938935 44.6602183,27.787309 C45.0990909,27.6350295 45.5792924,27.8670434 45.7314874,28.3036215 C45.8843385,28.7421603 45.6514539,29.2205662 45.2119252,29.3721922 Z" id="Shape"></path>
                        </g>
                    </g>
                </g>
            </g>
        </g>
    </g>
</svg>