<?xml version="1.0" encoding="utf-8"?>
<!-- Generator: Adobe Illustrator 24.0.3, SVG Export Plug-In . SVG Version: 6.00 Build 0)  -->
<svg version="1.1" id="Ebene_1" xmlns="http://www.w3.org/2000/svg" xmlns:xlink="http://www.w3.org/1999/xlink" x="0px" y="0px"
	 viewBox="0 0 100 100" style="enable-background:new 0 0 100 100;" xml:space="preserve">
<style type="text/css">
	.st0{fill:#FB1D5C;}
</style>
<path class="st0" d="M57.52,82.93c0-7.16,0-14.27,0-21.43c3.4,0,6.77,0,10.16,0c0.04-0.11,0.07-0.16,0.07-0.21
	c-0.04-1.6,0-3.22-0.13-4.82c-0.16-2.2-0.67-4.33-1.27-6.44c-0.63-2.16-1.44-4.24-2.21-6.34c-0.2-0.52-0.27-0.57-0.81-0.57
	c-1.74,0-3.49,0-5.21,0c-0.13,0-0.25,0.02-0.45,0.02c-0.02,0.25-0.04,0.49-0.04,0.72c0,5.59,0,11.18,0,16.77
	c0,0.23-0.02,0.49-0.04,0.77c-0.21,0.02-0.37,0.04-0.56,0.04c-0.83,0-1.66,0-2.48,0c-0.6,0-0.61,0-0.61-0.6c0-1.93,0-3.83,0-5.75
	c0-3.76,0-7.51,0-11.27c0-0.21,0-0.41,0-0.61c-0.37-0.11-7.78-0.14-8.54-0.04c-0.02,0.21-0.04,0.43-0.04,0.64
	c0,5.63,0,11.26,0,16.88c0,0.23-0.02,0.47-0.04,0.74c-1.23,0-2.39,0-3.61,0c-0.02-0.25-0.04-0.49-0.04-0.72c0-5.63,0-11.26,0-16.88
	c0-0.21-0.02-0.45-0.04-0.68c-0.16-0.02-0.27-0.04-0.37-0.04c-1.56,0-3.13,0-4.67,0c-0.34,0-0.54,0.13-0.64,0.45
	c-1.08,2.93-2.17,5.84-2.87,8.9c-0.64,2.83-0.86,5.68-0.81,8.57c0,0.09,0.02,0.2,0.04,0.29c0,0.06,0.04,0.09,0.07,0.2
	c3.11,0,6.24,0,9.34,0c0.11,0.5,0.11,21.03,0,21.48c-0.14,0.02-0.3,0.04-0.45,0.04c-2.27,0-4.51,0-6.77,0.02
	c-0.41,0-0.72-0.09-0.92-0.5c-0.96-2.05-1.94-4.08-2.84-6.14c-1.53-3.5-2.52-7.16-3.04-10.94c-0.36-2.6-0.49-5.21-0.34-7.84
	c0.2-3.22,0.9-6.33,1.96-9.37c1.13-3.24,2.57-6.34,4.17-9.38c0.25-0.49,0.57-0.67,1.11-0.67c9.49,0.02,18.98,0.02,28.5,0.02
	c0.77,0,1.53,0,2.3-0.02c0.6-0.02,0.99,0.21,1.27,0.77c1.58,3.02,3.06,6.1,4.17,9.33c0.86,2.56,1.51,5.14,1.8,7.82
	c0.23,2.23,0.23,4.47,0.06,6.73c-0.54,7-2.83,13.43-6.07,19.6c-0.21,0.41-0.52,0.61-1,0.61c-2.5-0.02-5.01-0.02-7.51-0.04
	C57.86,82.96,57.7,82.95,57.52,82.93z"/>
<path class="st0" d="M65.56,33.45c0,1.15,0,2.23,0,3.38c-0.21,0-0.41,0.02-0.61,0.02c-4.26,0-8.52,0-12.78,0
	c-5.73,0-11.47,0-17.22,0c-0.21,0-0.41,0-0.64,0c0-1.15,0-2.24,0-3.41c4.64,0,9.23,0,13.79,0c0.13-0.45,0.14-16.88,0-17.4
	c-2.3,0.3-4.6,0.67-6.9,0.99c-2.32,0.33-4.62,0.67-6.94,0.99c-2.3,0.34-4.62,0.68-6.9,1.03c-0.14-0.4-0.18-2.91-0.06-3.65
	c7.53-1.11,15.1-2.23,22.67-3.34s15.14-2.23,22.69-3.34c0.14,0.4,0.16,3.14,0.04,3.74c-6.96,1-13.95,2.02-20.97,3.05
	c-0.02,0.2-0.06,0.37-0.06,0.54c0,5.61,0,11.22,0,16.83c0,0.09,0,0.16,0,0.25c0,0.21,0.09,0.34,0.33,0.33c0.13,0,0.25,0,0.4,0
	c4.15,0,8.33,0,12.47,0C65.07,33.45,65.27,33.45,65.56,33.45z"/>
<path class="st0" d="M54.02,61.52c0,7.16,0,14.27,0,21.44c-2.93,0-5.83,0-8.76,0c0-7.16,0-14.29,0-21.41
	C45.62,61.46,53.31,61.43,54.02,61.52z"/>
<path class="st0" d="M34.28,87.76c-0.04-1.08-0.02-2.17,0-3.26c0.45-0.13,30.76-0.13,31.3-0.02c0.04,1.08,0.02,2.17,0,3.26
	C65.13,87.87,34.82,87.89,34.28,87.76z"/>
</svg>
