<?xml version="1.0" encoding="UTF-8"?>
<svg width="101px" height="100px" viewBox="0 0 101 100" version="1.1" xmlns="http://www.w3.org/2000/svg" xmlns:xlink="http://www.w3.org/1999/xlink">
    <!-- Generator: Sketch 53.2 (72643) - https://sketchapp.com -->
    <title>Group 7</title>
    <desc>Created with Sketch.</desc>
    <g id="Page-1" stroke="none" stroke-width="1" fill="none" fill-rule="evenodd">
        <g id="location" transform="translate(-601.000000, -1611.000000)">
            <g id="TechLabs-locations" transform="translate(-379.000000, 745.000000)">
                <g id="Group-4" transform="translate(655.267597, 611.000000)">
                    <g id="Group-7" transform="translate(325.000000, 255.000000)">
                        <g id="Group-6" fill="#FFFFFF" fill-opacity="0.01">
                            <g id="Group-5">
                                <rect id="Rectangle" x="0" y="0" width="100" height="100"></rect>
                            </g>
                        </g>
                        <g id="noun_The-Little-Mermaid_1577534" transform="translate(20.000000, 21.000000)" fill="#FB1D5C">
                            <g id="Group" transform="translate(0.084721, 0.000000)">
                                <path d="M35.2407337,32.2816537 L32.9190494,32.5419897 C32.1395504,32.629592 31.3695653,32.7864237 30.6183759,33.0105943 L16.0054221,37.342584 C15.0941853,37.6157154 14.3849053,38.3283483 14.1216931,39.2352178 C13.8584809,40.1420872 14.077269,41.1193918 14.7027577,41.8307752 C15.778108,43.0501534 17.279604,43.8203786 18.9049011,43.9863566 L19.8608887,44.0800775 C20.1796833,44.1129928 20.4956652,44.1686758 20.806371,44.2466925 L41.5649595,49.338863 C44.1577104,49.9760258 46.5214413,51.3133657 48.3934426,53.2022481 L53.0998433,57.9403618 C53.5198142,58.4006205 54.2153416,58.4892237 54.7390705,58.1491829 C55.2627994,57.8091421 55.4587609,57.141723 55.200915,56.5762016 L53.4044987,52.2025581 C52.8103915,50.7520643 51.8344683,49.486194 50.5785572,48.5370284 L46.1558012,45.2047287 C45.0018482,44.3338967 43.4154259,44.2919623 42.2162918,45.1005943 C41.5528026,45.5493532 40.695688,45.6051965 39.9786504,45.2463824 L31.8264921,41.1330749 C30.5373089,40.4848799 29.1368805,40.0822033 27.6978862,39.9459432 L24.5462786,39.6543669 C23.9428759,39.6342378 23.4701833,39.1330454 23.4904901,38.5349225 C23.5107969,37.9367995 24.0164134,37.468243 24.6198162,37.4883721 L26.5948236,37.4883721 C28.7283376,37.4965311 30.8312715,37.9918305 32.7404583,38.9358398 L37.7094929,41.3934109 C38.2903507,41.6814816 38.9640367,41.7245015 39.5773818,41.5126897 C40.190727,41.3008779 40.6916114,40.8522333 40.9661541,40.2687597 C42.1260157,37.8112126 42.5385224,35.0719631 42.1532596,32.3857881 L41.9746685,31.1361757 C41.7846463,29.8152916 41.7458805,28.4773469 41.8591096,27.1478295 L42.2898293,22.1597933 C42.6205448,18.3369388 40.9362323,14.6158347 37.8355572,12.3190956 C36.1549406,11.0740079 34.9243986,9.32469022 34.3267675,7.33105943 L34.2217139,6.96658915 C34.0801455,6.48654543 33.8031344,6.05659972 33.4233066,5.72739018 C33.168025,5.5064144 33.0191508,5.18856814 33.0135977,4.8526615 L33.0135977,3.73842377 C32.9627833,1.67475756 31.2720335,0.0218232164 29.1896471,0 L27.9605202,0 C26.5129946,0.000627408981 25.1474136,0.665906839 24.262634,1.80152455 L23.8424196,2.34302326 C23.1741849,3.20102146 22.9702806,4.32822985 23.296141,5.3629199 L23.4747321,5.92524548 C23.5439212,6.1443422 23.5793383,6.37253902 23.5797857,6.60211886 L23.5797857,8.82018088 C23.580964,9.29793047 23.7314354,9.76358448 24.0105054,10.1531008 L25.3131698,11.9754522 C25.5352336,12.2862114 25.9380553,12.4136466 26.3006735,12.2878553 L27.2776719,11.9442119 C27.575697,11.841448 27.9062988,11.9478471 28.0865845,12.2045478 L28.7799382,13.2458915 C29.2042821,13.8536396 29.3315009,14.6179162 29.126615,15.3285788 L28.9165078,16.0887597 C28.77024,16.5585338 28.2760515,16.8301905 27.7965859,16.7043837 C27.3171203,16.5785768 27.0232389,16.1001387 27.1305969,15.620155 L27.4457576,14.3913695 L25.932986,15.2765116 C25.1520534,15.732978 24.6847408,16.5755658 24.7143644,17.4737468 L24.819418,20.4311628 C24.828664,20.7379314 24.8075524,21.0448597 24.7563858,21.3475452 L23.6218071,28.2724806 C23.5816714,28.5508257 23.6840953,28.8306939 23.8949351,29.0187894 C24.1057749,29.2068848 24.3973054,29.2784732 24.6723429,29.2096899 C26.2622751,28.7418094 27.5597318,27.5969097 28.2126488,26.0856589 L28.5278095,25.3567183 C28.5703758,25.271661 28.6578889,25.217859 28.7536748,25.217859 C28.8494606,25.217859 28.9369737,25.271661 28.97954,25.3567183 L29.9145169,27.3352713 C30.1134052,27.7494707 30.1251024,28.2279907 29.9466854,28.6512524 C29.7682684,29.0745141 29.4165928,29.4025308 28.97954,29.5533333 L20.512221,32.5107494 C19.828687,32.7504589 19.4261145,33.4510134 19.5667387,34.1560724 C19.595134,34.3167621 19.6925295,34.4573081 19.8336525,34.5412411 C19.9747756,34.625174 20.1457146,34.6442199 20.3021138,34.5934367 L31.3747617,31.0424548 C31.6395904,30.9558272 31.9097913,30.8862592 32.1836743,30.834186 L34.9465836,30.1989664 C35.5267786,30.1184499 36.0629672,30.5194037 36.1441945,31.094522 C36.2254218,31.6696402 35.8209286,32.2011372 35.2407337,32.2816537 Z" id="Path"></path>
                                <path d="M2.64260601,58.3152455 L47.8786801,58.3152455 C48.4182789,58.3133227 48.8935113,57.9627674 49.0503348,57.4509741 C49.2071582,56.9391807 49.0088945,56.3858488 48.5615284,56.08677 L43.834117,52.962739 C42.9388716,52.3715592 41.9419019,51.9480251 40.8926166,51.7131266 L27.1095861,48.5890956 L17.6547634,46.2773127 C16.0415492,45.9485259 14.5339781,45.2335116 13.2635235,44.1946253 C12.4970794,43.5754529 11.4871014,43.3376341 10.5216249,43.5489922 L2.16986487,45.4442377 C1.18118132,45.6612919 0.472481083,46.523254 0.457491422,47.5269251 L0.457491422,56.1075969 C0.446205198,56.6892372 0.67142986,57.2509282 1.08244798,57.666185 C1.49346611,58.0814417 2.05572289,58.3153531 2.64260601,58.3152455 L2.64260601,58.3152455 Z" id="Path"></path>
                                <path d="M55.904774,49.9844961 C55.7105114,49.9826763 55.5270176,50.0727905 55.4107872,50.2270942 C55.2945568,50.3813978 55.2595237,50.5813927 55.3164739,50.7655039 L56.3670098,54.2435917 C56.3670098,54.3546684 56.3950241,54.4692162 56.4510527,54.5872351 L57.0393527,57.6279587 C57.1154182,58.0281031 57.4690058,58.3172604 57.8797814,58.3152455 L58.4470708,58.3152455 C58.9170287,58.3152455 59.2980048,57.9376029 59.2980048,57.4717571 L59.2980048,53.3063824 C59.280684,51.4626468 57.7648561,49.97869 55.904774,49.9844961 L55.904774,49.9844961 Z" id="Path"></path>
                            </g>
                        </g>
                    </g>
                </g>
            </g>
        </g>
    </g>
</svg>