<?xml version="1.0" encoding="utf-8"?>
<!-- Generator: Adobe Illustrator 24.0.3, SVG Export Plug-In . SVG Version: 6.00 Build 0)  -->
<svg version="1.1" id="Ebene_1" xmlns="http://www.w3.org/2000/svg" xmlns:xlink="http://www.w3.org/1999/xlink" x="0px" y="0px"
	 viewBox="0 0 1200 1200" style="enable-background:new 0 0 1200 1200;" xml:space="preserve">
<style type="text/css">
	.st0{fill:#E62B5F;}
</style>
<path class="st0" d="M1200,270.9c0-14.9-11.5-27.2-26.4-29c-1.3-13.5-13-24.1-27.4-24.1c-7.9,0-15,3.3-20.1,8.4
	c-4.5-2.4-9.7-3.7-15.2-3.7c-0.7,0-1.3,0.1-1.9,0.1c0-0.4,0.1-0.7,0.1-1.1c0-16.3-12.6-29.8-29-31.8c-1.4-14.8-14.3-26.5-30.1-26.5
	c-8.7,0-16.5,3.6-22,9.2c-5-2.6-10.7-4-16.7-4c-19.5,0-35.3,15.3-35.3,34.1c0,2.2,0.2,4.3,0.6,6.4c-1.8,1.3-3.4,2.7-4.8,4.3
	c-2.3-3.2-5.4-5.8-9.1-7.6c-0.5-1.5-1.1-2.9-1.8-4.3c8.5-5.8,14-15.3,14-26.1c0-16.3-12.6-29.8-29-31.8
	c-1.4-14.8-14.3-26.5-30.1-26.5c-8.7,0-16.5,3.6-22,9.2c-5-2.6-10.7-4-16.7-4c-13.5,0-25.2,7.3-31.2,18.1
	c-3.4-8.6-11.5-14.9-21.2-16.1c-1.1-11.8-11.4-21-23.9-21c-6.9,0-13.1,2.8-17.5,7.3c-2.6-1.4-5.5-2.3-8.5-2.8
	c-0.8-2.6-1.9-5-3.3-7.2c0.6-2.1,0.9-4.3,0.9-6.5c0-13-10-23.7-23-25.3c-1.1-11.8-11.4-21-23.9-21c-6.9,0-13.1,2.8-17.5,7.3
	c-3.9-2-8.5-3.2-13.3-3.2c-6.9,0-13.1,2.4-18,6.3c-6.5-12-18.8-20.5-33.3-22.3c-1.9-19.6-18.9-35-39.7-35
	c-11.5,0-21.8,4.7-29.1,12.2c-6.6-3.4-14.1-5.4-22.1-5.4c-25.8,0-46.7,20.2-46.7,45c0,2.9,0.3,5.7,0.9,8.4
	c-4.8,3.5-8.8,7.9-11.6,12.9c-3.3-4-8.1-6.8-13.6-7.4c-0.9-9.2-8.9-16.4-18.7-16.4c-5.4,0-10.3,2.2-13.7,5.7
	c-3.1-1.6-6.6-2.5-10.4-2.5c-12.1,0-21.9,9.5-21.9,21.2c0,1.4,0.2,2.7,0.4,4c-3.2,2.3-5.6,5.5-6.9,9.2
	c-11.5,6.9-19.2,19.2-19.2,33.3c0,0.8,0.1,1.6,0.1,2.4c-3.3-0.8-6.7-1.3-10.3-1.3c-7.5,0-14.5,2-20.5,5.4c-3.8-1.8-7.9-3.1-12.3-3.6
	c-1.6-17.1-16.5-30.5-34.6-30.5c-10,0-19,4.1-25.3,10.6c-5.7-3-12.3-4.7-19.2-4.7c-22.5,0-40.7,17.6-40.7,39.2c0,2.5,0.3,5,0.7,7.4
	c-7.1,5.1-12.1,12.7-14,21.3c-5.7-11-17.5-18.6-31.1-18.6c-10,0-19,4.1-25.3,10.6c-5.7-3-12.3-4.7-19.2-4.7
	c-22.5,0-40.7,17.6-40.7,39.2c0,2.5,0.3,4.9,0.7,7.2c-0.2,0-0.3,0-0.5,0c-10,0-19,4.1-25.3,10.6c-5.7-3-12.3-4.7-19.2-4.7
	C32.2,207,14,224.6,14,246.2c0,2.5,0.3,5,0.7,7.3C5.8,260.1,0,270.4,0,282c0,19.7,16.5,35.7,37,35.7c0,0,0,0,0.1,0
	c0.6,18.6,16.4,33.4,35.7,33.4c13,0,24.3-6.7,30.6-16.7c5.4,4.5,12.5,7.3,20.2,7.3c7.6,0,14.6-2.7,20-7.1
	c66.3,11.9,156.1,25.4,259.7,33.9c24.3,2,48.4,3.6,72.4,4.9c2.9,0.2,4.8,0.3,5.7,0.3c29,1.5,57.8,2.5,86.4,3l36.5,0.4
	c1.6,0,3.2,0,4.9,0c56.9,0,112.5-2.1,166.6-6.2c115.1-8.8,223.1-27,322.4-54.2c3.4,11.5,14.3,19.9,27.2,19.9
	c10.3,0,19.3-5.3,24.2-13.2c4.3,3.6,9.9,5.8,16,5.8c13.5,0,24.5-10.6,24.5-23.6c0-3.9-1-7.6-2.7-10.8
	C1194.9,289.4,1200,280.7,1200,270.9 M489.1,227c0-4.9-1.2-9.5-3.3-13.6c0.1-0.1,0.1-0.1,0.2-0.2c1.3-0.9,2.5-1.9,3.7-3
	c6.5,8.1,16.5,13.3,27.8,13.3c0,0,0,0,0.1,0c0.4,12.6,7.5,23.5,17.9,29.2c-16.9-1.4-33.9-3.3-51.1-5.9c-0.8-0.1-1.6-0.2-2.4-0.4
	C486.4,241.2,489.1,234.4,489.1,227 M378.6,245.7c5.4,12.1,17.5,20.5,31.5,20.5c9.4,0,17.9-3.8,24.1-9.8c14.8,3.1,30.5,5.9,46.7,8.3
	c29.8,4.4,59.3,7.2,88.2,8.2c1,1.5,2.2,2.8,3.5,3.9v27.3c-41.6-0.8-84.1-3.5-127.2-8.2c-27.4-3-53.5-6.6-77.9-10.6
	c1.9-3.9,3-8.3,3-12.9c0-4.9-1.2-9.6-3.3-13.7C372,255.3,375.9,250.9,378.6,245.7 M173.4,318c0.4-2,0.6-4,0.6-6.1
	c0-4.9-1.2-9.6-3.3-13.7c0.1,0,0.1-0.1,0.2-0.1c2,0.4,4.1,0.6,6.3,0.6c12.5,0,23.5-6.7,29.5-16.7c5.2,4.5,12.1,7.3,19.5,7.3
	c8.7,0,16.6-3.8,22-9.7c3,0.7,6.1,1.5,9.3,2.2c2.3,16.8,16.7,29.8,34.2,29.8c12.3,0,23.1-6.5,29.2-16.2c0.4,0.1,0.8,0.2,1.2,0.2
	c5.1,4.1,11.6,6.6,18.7,6.6c0.7,0,1.4-0.1,2-0.1c16,21.9,36.2,36.7,55.1,46.7C309.4,340.7,232.2,328.8,173.4,318 M486.8,355.3
	c-10.4-0.7-43.6-4.3-76.5-20.6c-17-8.4-31.2-18.8-42.8-31.1c23.8,3.8,49.1,7.4,75.6,10.3c43.9,4.8,87.2,7.6,129.6,8.4v36.2
	C544.4,358,515.7,356.9,486.8,355.3 M853.8,273.2c0.7,0.6,1.4,1.1,2.1,1.6c-1.2,0.3-2.5,0.6-3.8,0.9
	C852.7,274.9,853.2,274,853.8,273.2 M663.4,296.8c0.9-0.8,1.7-1.7,2.6-2.6c5.2,4.3,11.8,6.8,19,6.8c16.5,0,29.9-13.4,29.9-29.9
	c0-0.8-0.1-1.6-0.1-2.3c4.7,2.3,9.9,3.7,15.5,3.7c12.5,0,23.5-6.7,29.5-16.7c5.2,4.5,12,7.3,19.5,7.3c5.9,0,11.3-1.7,15.9-4.6
	c1,0.1,2,0.1,3,0.1h0.1c0.4,11,6.6,20.5,15.6,25.4c-30.9,6.1-62.6,10.8-95.2,14.2c-20.1,2.1-40.5,3.6-61.2,4.6
	C659.7,301.1,661.6,299,663.4,296.8 M608,296.1c1.4,1.9,3,3.7,4.7,5.3c-1.7,0.2-3.2,0.2-4.7,0.3V296.1z M772.2,352.7
	c-53.2,4.2-108.1,6.2-164.3,6.1v-36.4c38.3-0.3,75.8-2.4,112.3-6.1c68.7-7.1,134.1-20.2,195.4-39.2c0.6-0.2,1.2-0.4,1.8-0.6
	c5.7-1.8,11.4-3.6,17.1-5.5c1.9,0.7,3.9,1,6,1c6.6,0,12.4-3.4,15.7-8.6c2.5-0.9,4.9-1.8,7.4-2.7c-1.3,2.9-2,6.1-2,9.5
	c0,13.3,10.8,24,24.1,24h0c0.4,12.5,10.6,22.6,23.3,22.6c0.8,0,1.6,0,2.3-0.1C936,334,856.1,346.1,772.2,352.7 M1016.8,315.4
	c5.1-1.8,9.3-5.3,12.1-9.9c2.7,2.3,6,4,9.6,4.6C1031.3,312,1024.1,313.7,1016.8,315.4 M1054.7,306c2.5-2,4.5-4.7,5.8-7.7
	c1.3,1.8,2.8,3.5,4.5,4.9C1061.6,304.2,1058.2,305.1,1054.7,306 M572.7,358.5V1200l35.2-0.8V360L572.7,358.5z"/>
</svg>
