<?xml version="1.0" encoding="UTF-8"?>
<svg width="25px" height="25px" viewBox="0 0 25 25" version="1.1" xmlns="http://www.w3.org/2000/svg" xmlns:xlink="http://www.w3.org/1999/xlink">
    <!-- Generator: Sketch 55.1 (78136) - https://sketchapp.com -->
    <title>XMLID_6_</title>
    <desc>Created with Sketch.</desc>
    <g id="Page-1" stroke="none" stroke-width="1" fill="none" fill-rule="evenodd">
        <g id="Artboard" transform="translate(-44.000000, -61.000000)" fill="#ACACAC" fill-rule="nonzero">
            <path d="M61,71.5 C61,69.6993243 60.3851351,68.1621622 59.1114865,66.8885135 C57.8378378,65.6148649 56.3006757,65 54.5,65 C52.6993243,65 51.1621622,65.6148649 49.8885135,66.8885135 C48.6148649,68.1621622 48,69.6993243 48,71.5 C48,73.3006757 48.6148649,74.8378378 49.8885135,76.1114865 C51.1621622,77.3851351 52.6993243,78 54.5,78 C56.3006757,78 57.8378378,77.3851351 59.1114865,76.1114865 C60.3412162,74.7939189 61,73.2567568 61,71.5 Z M69,84.0454545 C69,84.5454545 68.8178506,85 68.4080146,85.4090909 C67.9981785,85.8181818 67.5883424,86 67.0418944,86 C66.4954463,86 66.0400729,85.8181818 65.6757741,85.4090909 L60.575592,80.2272727 C58.7540984,81.5 56.7504554,82.0909091 54.564663,82.0909091 C53.1074681,82.0909091 51.7413479,81.8181818 50.4663024,81.2727273 C49.1457195,80.7272727 48.007286,79.9545455 47.0965392,79 C46.1857923,78.0454545 45.4116576,76.9090909 44.8196721,75.6363636 C44.273224,74.3181818 44,72.9545455 44,71.5454545 C44,70.1363636 44.273224,68.7272727 44.8196721,67.4545455 C45.3661202,66.1363636 46.140255,65 47.0965392,64.0909091 C48.0528233,63.1818182 49.1912568,62.4090909 50.4663024,61.8181818 C51.7868852,61.2727273 53.1530055,61 54.564663,61 C55.9763206,61 57.3879781,61.2727273 58.6630237,61.8181818 C59.9836066,62.3636364 61.1220401,63.1363636 62.0327869,64.0909091 C62.9435337,65.0454545 63.7176685,66.1818182 64.3096539,67.4545455 C64.856102,68.7727273 65.129326,70.1363636 65.129326,71.5454545 C65.129326,73.7272727 64.4918033,75.7272727 63.2622951,77.5454545 L68.4080146,82.6818182 C68.8178506,83.0454545 69,83.5 69,84.0454545 Z" id="XMLID_6_"></path>
        </g>
    </g>
</svg>