<svg width="40" height="41" viewBox="0 0 40 41" fill="none" xmlns="http://www.w3.org/2000/svg">
<path d="M36.5311 1.34275H17.2973C16.8179 1.34275 16.4293 1.74049 16.4293 2.23121V9.15403L17.3919 8.54224C17.6369 8.38649 17.8985 8.28142 18.1652 8.22369V3.11968H35.663V15.9334H18.1653V13.8602L16.4293 14.9635V16.822C16.4293 17.3127 16.8179 17.7104 17.2973 17.7104H36.5311C37.0104 17.7104 37.3991 17.3127 37.3991 16.822V2.23121C37.3991 1.74049 37.0104 1.34275 36.5311 1.34275Z" fill="#303030"/>
<path d="M23.9116 6.27459C23.6832 5.97814 23.2634 5.92745 22.9739 6.16104L19.9841 8.57403C20.2696 8.76501 20.52 9.02086 20.7117 9.33693C20.7661 9.42638 20.8133 9.51839 20.8552 9.61168L23.8007 7.23441C24.0903 7.00074 24.1399 6.57096 23.9116 6.27459Z" fill="#303030"/>
<path d="M9.48036 5.11458C10.8602 5.11458 11.9787 3.96964 11.9787 2.55729C11.9787 1.14494 10.8602 0 9.48036 0C8.10056 0 6.98201 1.14494 6.98201 2.55729C6.98201 3.96964 8.10056 5.11458 9.48036 5.11458Z" fill="#303030"/>
<path d="M19.6877 9.98797C19.3365 9.40908 18.5935 9.23115 18.0278 9.59054L15.5865 11.142C15.5763 9.06971 15.5817 10.1695 15.5752 8.83492C15.5673 7.23296 14.2877 5.92961 12.7225 5.92961H11.5366C10.5234 8.61927 10.8498 7.62086 9.98981 9.90388L10.3515 8.29183C10.3765 8.17108 10.3584 8.04519 10.3002 7.93709L9.81019 7.02476L10.2451 6.21525C10.3099 6.09449 10.2244 5.94651 10.0898 5.94651H8.8951C8.76054 5.94651 8.67488 6.09449 8.73981 6.21525L9.17557 7.02644L8.68458 7.94045C8.62763 8.04655 8.60901 8.16988 8.63201 8.28855L8.94533 9.90388C8.77643 9.45553 7.60881 6.35595 7.4482 5.92961H6.23825C4.67321 5.92961 3.39349 7.23288 3.38559 8.83492L3.34107 17.8998C3.33779 18.5812 3.8747 19.1364 4.54045 19.1398C4.54257 19.1398 4.54452 19.1398 4.54663 19.1398C5.2095 19.1398 5.7486 18.5915 5.75188 17.9122L5.7964 8.84733V8.84309C5.79827 8.70856 5.90584 8.60077 6.03727 8.60182C6.1687 8.60278 6.27463 8.71216 6.27463 8.84669L6.27518 21.6897C7.37873 21.6416 8.40122 22.0491 9.16829 22.7646V17.7542H9.79282V23.5017C10.2327 24.1638 10.4902 24.9625 10.4902 25.8219C10.4902 26.6048 10.2765 27.3376 9.90587 27.9624C10.2865 27.9643 10.6563 28.016 11.0089 28.1115C11.4842 27.6894 12.056 27.3787 12.6859 27.2197C12.6859 4.85056 12.6597 18.6812 12.6597 8.84838C12.6597 8.70592 12.7723 8.59045 12.9115 8.59021C13.0507 8.58988 13.1637 8.70488 13.1643 8.84733C13.1685 9.71274 13.1818 12.418 13.1865 13.3598C13.1887 13.8066 13.4266 14.2173 13.8086 14.4334C14.19 14.6491 14.6563 14.6379 15.0277 14.4019L19.2995 11.687C19.865 11.3277 20.0389 10.5668 19.6877 9.98797Z" fill="#303030"/>
<path d="M33.5514 28.5585C35.0119 28.5585 36.1959 27.3466 36.1959 25.8517C36.1959 24.3567 35.0119 23.1448 33.5514 23.1448C32.0909 23.1448 30.9069 24.3567 30.9069 25.8517C30.9069 27.3466 32.0909 28.5585 33.5514 28.5585Z" fill="#303030"/>
<path d="M39.9851 32.4965C39.9767 30.8008 38.6222 29.4212 36.9654 29.4212C36.2506 29.4212 30.9742 29.4212 30.3328 29.4212C30.6173 29.9872 30.7791 30.6279 30.7791 31.307C30.7791 32.0281 30.5909 32.7815 30.1923 33.4517C31.6712 33.5129 32.9671 34.3253 33.7244 35.5255H36.899V32.5282C36.899 32.3806 37.0132 32.2597 37.1573 32.2547C37.3013 32.2496 37.4234 32.3624 37.4331 32.5095L37.448 35.5255H40L39.9851 32.4965Z" fill="#303030"/>
<path d="M22.6965 31.307C22.6965 30.616 22.8637 29.9646 23.1576 29.3915C21.4358 29.3915 19.414 29.3915 17.2693 29.3915C17.5409 29.9472 17.6946 30.5731 17.6946 31.2356C17.6946 32.0141 17.481 32.7512 17.1103 33.3762C18.3274 33.3821 19.4504 33.8997 20.2617 34.7589C21.0483 33.9724 22.1205 33.4845 23.3 33.478C22.8904 32.8012 22.6965 32.0413 22.6965 31.307Z" fill="#303030"/>
<path d="M20.6898 23.1149C19.2294 23.1149 18.0452 24.3266 18.0452 25.8218C18.0452 27.3135 19.2271 28.5287 20.6898 28.5287C22.1385 28.5287 23.3343 27.3303 23.3343 25.8218C23.3343 24.3283 22.1526 23.1149 20.6898 23.1149Z" fill="#303030"/>
<path d="M9.61195 31.2356C9.61195 30.5748 9.76497 29.9501 10.0353 29.3954C9.92128 29.3897 10.4008 29.3915 3.03464 29.3915C1.38643 29.3915 0.0233915 30.7639 0.0150206 32.4668L0 35.5255C1.16621 35.5255 1.40083 35.5255 2.55202 35.5255L2.56696 32.48C2.56774 32.3292 2.68752 32.2076 2.83475 32.208C2.98199 32.2085 3.10105 32.3307 3.10105 32.4814V35.5255H6.67839C7.44937 34.2639 8.77502 33.4718 10.2179 33.4109C9.82623 32.7653 9.61195 32.0204 9.61195 31.2356Z" fill="#303030"/>
<path d="M6.44893 23.1149C4.98849 23.1149 3.80444 24.3268 3.80444 25.8218C3.80444 27.31 4.98153 28.5287 6.44893 28.5287C7.89905 28.5287 9.0935 27.3263 9.0935 25.8218C9.0935 24.3267 7.90945 23.1149 6.44893 23.1149Z" fill="#303030"/>
<path d="M33.0282 37.9415C33.0199 36.2456 31.6654 34.866 30.0086 34.866C29.8329 34.866 23.5178 34.866 23.3192 34.866C21.6626 34.866 20.2211 36.2455 20.2128 37.9413L20.1912 37.87C20.183 36.181 18.8346 34.7947 17.1717 34.7947C15.2516 34.7947 12.4938 34.7947 10.4823 34.7947C8.82563 34.7947 7.3842 36.1742 7.37583 37.87L7.36081 40.9999H9.91283L9.92777 37.8831C9.9284 37.7532 10.0316 37.6485 10.1584 37.6488C10.2852 37.6491 10.3878 37.7545 10.3878 37.8843V41C11.8837 41 15.7454 41 17.1464 41V37.8843C17.1464 37.7453 17.2564 37.6326 17.3922 37.6322C17.5279 37.6318 17.6385 37.744 17.6392 37.883L17.6542 40.9999C18.1759 40.9999 22.2103 40.9999 22.7498 40.9999L22.7647 37.9545C22.7654 37.8247 22.8686 37.7198 22.9954 37.7202C23.1222 37.7205 23.2247 37.8259 23.2247 37.9557V40.9999C24.7206 40.9999 28.5823 40.9999 29.9834 40.9999V37.9557C29.9834 37.8167 30.0933 37.7039 30.2291 37.7035C30.3648 37.7032 30.4754 37.8154 30.4761 37.9544L30.4911 40.9998H33.0431L33.0282 37.9415Z" fill="#303030"/>
<path d="M13.7361 33.9636C15.2137 33.9636 16.4115 32.7375 16.4115 31.225C16.4115 29.7126 15.2137 28.4865 13.7361 28.4865C12.2585 28.4865 11.0607 29.7126 11.0607 31.225C11.0607 32.7375 12.2585 33.9636 13.7361 33.9636Z" fill="#303030"/>
<path d="M26.7333 34.0347C28.2109 34.0347 29.4087 32.8086 29.4087 31.2962C29.4087 29.7837 28.2109 28.5576 26.7333 28.5576C25.2558 28.5576 24.058 29.7837 24.058 31.2962C24.058 32.8086 25.2558 34.0347 26.7333 34.0347Z" fill="#303030"/>
</svg>
