<?xml version="1.0" encoding="UTF-8"?>
<svg width="110px" height="109px" viewBox="0 0 110 109" version="1.1" xmlns="http://www.w3.org/2000/svg" xmlns:xlink="http://www.w3.org/1999/xlink">
    <!-- Generator: Sketch 51.3 (57544) - http://www.bohemiancoding.com/sketch -->
    <title>icon</title>
    <desc>Created with Sketch.</desc>
    <defs></defs>
    <g id="Page-1" stroke="none" stroke-width="1" fill="none" fill-rule="evenodd">
        <g id="Slack" transform="translate(-65.000000, -65.000000)" fill-rule="nonzero">
            <g transform="translate(40.000000, 40.000000)" id="icon">
                <g transform="translate(25.000000, 25.000000)">
                    <path d="M9.65993243,57.8094595 C5.57655405,57.8406757 2.1175,55.4072973 0.842094595,51.6093243 C0.794780236,51.4658887 0.750670173,51.3214158 0.709797297,51.1760135 C-0.680067568,46.3122297 2.01493243,41.2239865 6.84527027,39.5947973 L84.3209459,13.6385135 C85.2408653,13.3723849 86.1928662,13.2333483 87.150473,13.2252703 C91.3423649,13.1925676 94.8965541,15.6794595 96.2031757,19.5577027 L96.3191216,19.9322973 C97.7684459,24.9982432 94.1674324,29.5201351 89.8529054,30.9694595 C89.8499324,30.9716892 89.0650676,31.237027 12.8068243,57.2735811 C11.7932095,57.6191172 10.7307832,57.8000358 9.65993243,57.8094595 L9.65993243,57.8094595 Z" id="Shape" fill="#70CADB"></path>
                    <path d="M22.5737838,95.9118243 C18.4584459,95.9415541 14.9875,93.5423649 13.7269595,89.7986486 C13.6791102,89.6562348 13.6345041,89.5127518 13.5931757,89.3683108 C12.1839865,84.4465541 14.8760135,79.3047973 19.7227027,77.6733784 L97.2013514,51.4792568 C98.2025,51.1447973 99.2363514,50.9738514 100.276149,50.9641892 C104.402635,50.932973 108.028176,53.4540541 109.307297,57.2401351 L109.426216,57.6340541 C110.174662,60.2510135 109.732432,63.192027 108.244459,65.5131757 C107.135541,67.2389865 103.637838,68.7581757 103.637838,68.7581757 L25.8648649,95.3506757 C24.8041598,95.7097616 23.6935386,95.8996306 22.5737838,95.9133108 L22.5737838,95.9118243 L22.5737838,95.9118243 Z" id="Shape" fill="#E01765"></path>
                    <path d="M87.0694595,96.0775676 C82.9496312,96.1171305 79.2726749,93.4999058 77.9610135,89.5942568 L52.1035811,12.7875 L51.9742568,12.3564189 C50.5732432,7.45844595 53.2675,2.34939189 58.0963514,0.721689189 C59.0625676,0.396891892 60.0614865,0.227432432 61.0670946,0.218513514 C62.5610135,0.207364865 64.0066216,0.544054054 65.3682432,1.21668919 C67.633609,2.33698337 69.3587338,4.31436313 70.1614189,6.71074324 L96.0166216,83.5108108 L96.0916892,83.7575676 C97.5439865,88.8428378 94.8556757,93.9548649 90.0268243,95.5825676 C89.0729932,95.9012291 88.0750699,96.0682602 87.0694595,96.0775676 L87.0694595,96.0775676 Z" id="Shape" fill="#E8A723"></path>
                    <path d="M48.6341216,109.014459 C44.511917,109.053726 40.833223,106.434232 39.5219595,102.525946 L13.6712162,25.7221622 C12.8622499,23.3291013 13.0384821,20.7125282 14.1610426,18.4495601 C15.283603,16.1865921 17.2602708,14.4631371 19.6550676,13.6593243 C20.6103131,13.3399965 21.6097317,13.1724653 22.6168919,13.1628378 C26.7374129,13.1221583 30.4153887,15.7396816 31.7268243,19.6461486 L57.5783108,96.4529054 C58.3876647,98.8471227 58.2108537,101.465016 57.0869107,103.728659 C55.9629676,105.992303 53.9843189,107.715549 51.5877703,108.517973 C50.634381,108.83747 49.6366085,109.004769 48.6311486,109.013716 L48.6341216,109.013716 L48.6341216,109.014459 Z" id="Shape" fill="#3EB890"></path>
                    <polygon id="Shape" fill="#CC2027" points="74.3220946 78.7808108 92.3516892 72.6163514 86.4577703 55.112973 68.4073649 61.2127703 74.3220946 78.7808108"></polygon>
                    <polygon id="Shape" fill="#361238" points="35.9462162 91.902027 53.9743243 85.7383108 48.0358108 68.1011486 29.9898649 74.2031757 35.9462162 91.902027"></polygon>
                    <polygon id="Shape" fill="#65863A" points="61.4862838 40.6554054 79.5173649 34.4991216 73.6925676 17.2001351 55.6280405 23.2523649"></polygon>
                    <polygon id="Shape" fill="#1A937D" points="23.1059459 53.7587838 41.137027 47.6025 35.2408784 30.0827703 17.1763514 36.1342568 23.1059459 53.7587838"></polygon>
                </g>
            </g>
        </g>
    </g>
</svg>