<?xml version="1.0" encoding="utf-8"?>
<!-- Generator: Adobe Illustrator 23.0.6, SVG Export Plug-In . SVG Version: 6.00 Build 0)  -->
<svg version="1.1" id="Ebene_1" xmlns="http://www.w3.org/2000/svg" xmlns:xlink="http://www.w3.org/1999/xlink" x="0px" y="0px"
	 viewBox="0 0 500 500" style="enable-background:new 0 0 500 500;" xml:space="preserve">
<style type="text/css">
	.st0{fill-rule:evenodd;clip-rule:evenodd;fill:#FFFFFF;}
	.st1{fill:#FB1D5C;}
</style>
<title>Group</title>
<desc>Created with Sketch.</desc>
<g id="Page-2">
	<g id="Artboard" transform="translate(-185.000000, -164.000000)">
		<g id="Group" transform="translate(185.000000, 164.000000)">
			<path id="Rectangle" class="st0" d="M250,0L250,0c138.1,0,250,111.9,250,250l0,0c0,138.1-111.9,250-250,250l0,0
				C111.9,500,0,388.1,0,250l0,0C0,111.9,111.9,0,250,0z"/>
			<g id="tl-icon-o" transform="translate(110.000000, 129.000000)">
				<path id="arrow" class="st1" d="M0,225.9l0-42c0-3,0.8-5.9,2.4-8.5c1.9-2.9,4.6-5.3,7.7-6.8L95,124.1c7.7-3.7,15.7-6.6,24.1-8.5
					c-4.5-1.1-8.8-2.4-12.7-3.7c-3.9-1.3-7.7-2.9-11.3-4.9l-85-44.3c-3.2-1.5-5.8-3.8-7.7-6.8C0.8,53.3,0,50.3,0,47.3l0-42
					l185.3,98.4v23.8L0,225.9z"/>
				<path id="point" class="st1" d="M211.8,221.5c0-5.4,1-10.7,3-15.7c1.9-4.7,4.8-8.9,8.4-12.5c3.7-3.6,7.9-6.4,12.6-8.5
					c5-2.1,10.4-3.2,15.8-3.1c5.3,0,10.6,1,15.5,3.1c4.7,2,9,4.8,12.6,8.5c3.6,3.6,6.4,7.8,8.4,12.5c2.1,4.9,3.2,10.3,3.2,15.7
					c0.1,5.4-1,10.7-3.2,15.7c-2,4.6-4.8,8.9-8.4,12.5c-3.6,3.6-7.9,6.4-12.6,8.3c-4.9,2.1-10.2,3.1-15.5,3.1
					c-5.4,0-10.8-1.1-15.8-3.1c-4.7-1.9-9-4.8-12.6-8.3c-3.6-3.5-6.5-7.8-8.4-12.5C212.8,232.2,211.7,226.9,211.8,221.5z"/>
			</g>
		</g>
	</g>
</g>
</svg>
