<?xml version="1.0" encoding="UTF-8"?>
<svg width="500px" height="500px" viewBox="0 0 500 500" version="1.1" xmlns="http://www.w3.org/2000/svg" xmlns:xlink="http://www.w3.org/1999/xlink">
    <!-- Generator: Sketch 55 (78076) - https://sketchapp.com -->
    <title>Group</title>
    <desc>Created with Sketch.</desc>
    <g id="Page-2" stroke="none" stroke-width="1" fill="none" fill-rule="evenodd">
        <g id="Artboard" transform="translate(-185.000000, -164.000000)">
            <g id="Group" transform="translate(185.000000, 164.000000)">
                <rect id="Rectangle" fill="#FFFFFF" x="0" y="0" width="500" height="500" rx="250"></rect>
                <g id="tl-icon-o" transform="translate(110.000000, 129.000000)" fill="#FB1D5C" fill-rule="nonzero">
                    <path d="M0,225.882353 L0.000726110515,183.896596 C0.00686868094,180.897909 0.825024299,177.957602 2.36725263,175.391716 C4.26036483,172.451478 6.93467455,170.104149 10.0866367,168.616162 L95.0280349,124.07894 C102.702308,120.337069 110.773869,117.483846 119.087721,115.57406 C114.580052,114.440077 110.325938,113.192694 106.353555,111.888613 C102.470646,110.576928 98.7015449,108.946052 95.0843807,107.012481 L10.0866367,62.7304066 C6.93467455,61.2424189 4.26036483,58.8950904 2.36725263,55.9548523 C0.791462058,53.3307742 -0.0279184981,50.3173547 0.000726110515,47.2515252 L0,5.29411765 L185.294118,103.667229 L185.294118,127.424193 L0,225.882353 Z" id="arrow"></path>
                    <path d="M211.765516,221.549806 C211.739,216.185959 212.757516,210.86757 214.765045,205.887148 C216.682293,201.197786 219.527349,196.937184 223.132152,193.357022 C226.784201,189.793919 231.065167,186.927026 235.761747,184.899187 C240.747977,182.779496 246.124328,181.712695 251.54874,181.766655 C256.868254,181.742425 262.135441,182.808895 267.019994,184.899187 C271.745979,186.873513 276.036566,189.74685 279.649589,193.357022 C283.243894,196.945682 286.087467,201.204063 288.016696,205.887148 C290.144432,210.83681 291.21933,216.168973 291.174095,221.549806 C291.23405,226.932013 290.158553,232.26715 288.016696,237.212463 C286.020132,241.859891 283.184542,246.106317 279.649589,249.742589 C276.037229,253.314411 271.743795,256.136408 267.019994,258.043798 C262.126696,260.106325 256.865335,261.171616 251.54874,261.176329 C246.128163,261.190585 240.75983,260.125374 235.761747,258.043798 C231.0548,256.104875 226.767208,253.286717 223.132152,249.742589 C219.483915,246.197828 216.632499,241.927701 214.765045,237.212463 C212.75058,232.234053 211.731804,226.914305 211.765516,221.549806 Z" id="point"></path>
                </g>
            </g>
        </g>
    </g>
</svg>