<?xml version="1.0" encoding="UTF-8"?>
<svg width="30px" height="27px" viewBox="0 0 30 27" version="1.1" xmlns="http://www.w3.org/2000/svg" xmlns:xlink="http://www.w3.org/1999/xlink">
    <!-- Generator: Sketch 51.3 (57544) - http://www.bohemiancoding.com/sketch -->
    <title>Group</title>
    <desc>Created with Sketch.</desc>
    <defs></defs>
    <g id="Welcome" stroke="none" stroke-width="1" fill="none" fill-rule="evenodd">
        <g id="Full-HD-+-Data-Science" transform="translate(-260.000000, -46.000000)" fill="#FB1D5C" fill-rule="nonzero">
            <g id="Group-4" transform="translate(260.000000, 45.000000)">
                <g id="Group" transform="translate(0.000000, 1.000000)">
                    <path d="M0,22.5882353 L7.26110515e-05,18.3896596 C0.000686868094,18.0897909 0.0825024299,17.7957602 0.236725263,17.5391716 C0.426036483,17.2451478 0.693467455,17.0104149 1.00866367,16.8616162 L9.50280349,12.407894 C10.2702308,12.0337069 11.0773869,11.7483846 11.9087721,11.557406 C11.4580052,11.4440077 11.0325938,11.3192694 10.6353555,11.1888613 C10.2470646,11.0576928 9.87015449,10.8946052 9.50843807,10.7012481 L1.00866367,6.27304066 C0.693467455,6.12424189 0.426036483,5.88950904 0.236725263,5.59548523 C0.0791462058,5.33307742 -0.00279184981,5.03173547 7.26110515e-05,4.72515252 L0,0.529411765 L18.5294118,10.3667229 L18.5294118,12.7424193 L0,22.5882353 Z" id="arrow"></path>
                    <path d="M21.1765516,22.1549806 C21.1739,21.6185959 21.2757516,21.086757 21.4765045,20.5887148 C21.6682293,20.1197786 21.9527349,19.6937184 22.3132152,19.3357022 C22.6784201,18.9793919 23.1065167,18.6927026 23.5761747,18.4899187 C24.0747977,18.2779496 24.6124328,18.1712695 25.154874,18.1766655 C25.6868254,18.1742425 26.2135441,18.2808895 26.7019994,18.4899187 C27.1745979,18.6873513 27.6036566,18.974685 27.9649589,19.3357022 C28.3243894,19.6945682 28.6087467,20.1204063 28.8016696,20.5887148 C29.0144432,21.083681 29.121933,21.6168973 29.1174095,22.1549806 C29.123405,22.6932013 29.0158553,23.226715 28.8016696,23.7212463 C28.6020132,24.1859891 28.3184542,24.6106317 27.9649589,24.9742589 C27.6037229,25.3314411 27.1743795,25.6136408 26.7019994,25.8043798 C26.2126696,26.0106325 25.6865335,26.1171616 25.154874,26.1176329 C24.6128163,26.1190585 24.075983,26.0125374 23.5761747,25.8043798 C23.10548,25.6104875 22.6767208,25.3286717 22.3132152,24.9742589 C21.9483915,24.6197828 21.6632499,24.1927701 21.4765045,23.7212463 C21.275058,23.2234053 21.1731804,22.6914305 21.1765516,22.1549806 Z" id="point"></path>
                </g>
            </g>
        </g>
    </g>
</svg>