<?xml version="1.0" encoding="UTF-8"?>
<svg width="1000px" height="1000px" viewBox="0 0 1000 1000" version="1.1" xmlns="http://www.w3.org/2000/svg" xmlns:xlink="http://www.w3.org/1999/xlink">
    <!-- Generator: Sketch 55 (78076) - https://sketchapp.com -->
    <title>Group 25</title>
    <desc>Created with Sketch.</desc>
    <g id="#playground" stroke="none" stroke-width="1" fill="none" fill-rule="evenodd">
        <g id="Group-25">
            <rect id="Rectangle" fill="#FFFFFF" x="0" y="0" width="1000" height="1000"></rect>
            <g id="tl-logo" transform="translate(189.000000, 233.000000)" fill="#FB1D5C" fill-rule="nonzero">
                <path d="M0,467 L0.00165368788,378.113353 C0.0156431483,371.764933 1.8789601,365.540106 5.39132392,360.107955 C9.70281184,353.883275 15.7934461,348.913824 22.9719149,345.763655 L216.422578,251.475389 C233.90043,243.553597 252.283091,237.513133 271.217559,233.469991 C260.951521,231.069271 251.262947,228.42848 242.216,225.667652 C233.37283,222.890729 224.788852,219.438055 216.550904,215.344557 L22.9719149,121.596453 C15.7934461,118.446284 9.70281184,113.476833 5.39132392,107.252153 C1.80252343,101.696804 -0.0635832716,95.3171945 0.00165368788,88.826629 L0,0 L422,208.262434 L422,258.557512 L0,467 Z" id="arrow"></path>
                <path d="M456.001704,428.666591 C455.945942,417.38662 458.087842,406.202245 462.309602,395.728602 C466.341503,385.867047 472.32455,376.90716 479.905317,369.378211 C487.585443,361.885139 496.588156,355.856168 506.464888,351.591697 C516.950747,347.134066 528.257013,344.890622 539.664351,345.0041 C550.851091,344.953145 561.927791,347.195892 572.199825,351.591697 C582.138396,355.743632 591.161342,361.786153 598.759396,369.378211 C606.318085,376.925031 612.298014,385.880249 616.355111,395.728602 C620.829661,406.137557 623.090133,417.350899 622.995004,428.666591 C623.121088,439.985175 620.859356,451.204769 616.355111,461.60458 C612.156411,471.377949 606.19327,480.308025 598.759396,487.954971 C591.162735,495.46638 582.133803,501.400936 572.199825,505.412105 C561.9094,509.749524 550.844952,511.989791 539.664351,511.999703 C528.265078,512.029682 516.975672,509.789583 506.464888,505.412105 C496.566353,501.334623 487.549706,495.408141 479.905317,487.954971 C472.233211,480.500469 466.236789,471.520551 462.309602,461.60458 C458.073256,451.135168 455.930808,439.947934 456.001704,428.666591 Z" id="point"></path>
            </g>
        </g>
    </g>
</svg>