<?xml version="1.0" encoding="UTF-8"?>
<svg width="311px" height="40px" viewBox="0 0 311 40" version="1.1" xmlns="http://www.w3.org/2000/svg" xmlns:xlink="http://www.w3.org/1999/xlink">
    <!-- Generator: Sketch 54 (76480) - https://sketchapp.com -->
    <title>Group</title>
    <desc>Created with Sketch.</desc>
    <g id="#components" stroke="none" stroke-width="1" fill="none" fill-rule="evenodd">
        <g id="footer-xl" transform="translate(-143.000000, -532.000000)" fill="#FFFFFF" fill-rule="nonzero">
            <g id="footer" transform="translate(0.000000, 295.000000)">
                <g id="Group" transform="translate(143.000000, 237.000000)">
                    <path d="M0,35 L0.000101885983,29.4802725 C0.000963795865,29.0860451 0.115765314,28.6994927 0.332166876,28.3621642 C0.597803573,27.975621 0.973055921,27.6670255 1.41533125,27.4714047 L13.3340925,21.6162447 C14.410927,21.1243133 15.543508,20.7492096 16.7100866,20.4981365 C16.0775818,20.3490554 15.4806555,20.1850662 14.9232607,20.0136229 C14.3784208,19.8411802 13.8495501,19.6267743 13.3419988,19.3725742 L1.41533125,13.5509575 C0.973055921,13.3553367 0.597803573,13.0467412 0.332166876,12.6601979 C0.111055946,12.3152191 -0.00391745275,11.9190549 0.000101885983,11.5160005 L0,6 L26,18.932785 L26,22.0560339 L0,35 Z" id="arrow"></path>
                    <path d="M28.0001122,33.5109731 C27.9964393,32.767981 28.1375225,32.0312856 28.4156025,31.341405 C28.6811769,30.6918414 29.0752698,30.1016692 29.5746017,29.6057504 C30.0804783,29.1121948 30.6734713,28.7150769 31.3240345,28.4341837 C32.0147198,28.1405672 32.759444,27.9927955 33.5108255,28.00027 C34.2476767,27.9969137 34.9772797,28.1446396 35.6538807,28.4341837 C36.3085171,28.7076644 36.9028429,29.1056748 37.4033135,29.6057504 C37.9011912,30.1028464 38.2950788,30.692711 38.5623127,31.341405 C38.8570436,32.0270247 39.0059369,32.7656281 38.9996709,33.5109731 C39.0079759,34.2565085 38.8589995,34.9955237 38.5623127,35.6805412 C38.2857516,36.324296 37.8929699,36.9125046 37.4033135,37.4161957 C36.9029346,37.9109591 36.3082146,38.3018581 35.6538807,38.5660668 C34.9760682,38.8517651 34.2472723,38.9993275 33.5108255,38.9999804 C32.7599752,39.0019551 32.0163617,38.8544037 31.3240345,38.5660668 C30.6720352,38.2974902 30.0781243,37.9071231 29.5746017,37.4161957 C29.0692534,36.9251806 28.6742795,36.333689 28.4156025,35.6805412 C28.1365618,34.9909392 27.9954424,34.2540555 28.0001122,33.5109731 Z" id="point"></path>
                    <polygon id="Shape" points="68.3353861 6.51320379 56 6.51320379 56 0 88 0 88 6.51320379 75.6684036 6.51320379 75.6684036 38 68.3353861 38"></polygon>
                    <path d="M92.8727015,27.9807229 C93.3117804,31.3737617 96.2030035,33.8040161 100.891473,33.8040161 C103.347338,33.8040161 106.56601,32.8567604 108.095344,31.2456493 L112.348456,35.5160643 C109.513048,38.5558233 104.876673,40 100.783564,40 C91.5108126,40 86,34.1767068 86,25.3641232 C86,17.0174029 91.5629067,11 100.292391,11 C109.293509,11 114.912231,16.6796519 113.877791,27.9768407 L92.8727015,27.9807229 Z M107.481378,22.3593039 C107.057183,18.7954485 104.329685,17.0135207 100.511931,17.0135207 C96.909995,17.0135207 93.9629568,18.7915663 92.9843317,22.3554217 L107.481378,22.3593039 Z" id="Shape"></path>
                    <path d="M143,35.6672458 C139.720085,38.7676066 136.267542,40 132.069564,40 C123.830542,40 117,35.2215689 117,25.4980623 C117,15.7745557 123.846235,11 132.069564,11 C136.094915,11 139.202203,12.1122544 142.309491,15.0537218 L137.880036,19.5531204 C136.306575,18.1779377 134.284159,17.40884 132.183341,17.3867433 C127.475328,17.3867433 124.018862,20.7235066 124.018862,25.4980623 C124.018862,30.7221703 127.698959,33.5008686 132.069564,33.5008686 C134.313717,33.5008686 136.557869,32.8885474 138.280217,31.2221034 L143,35.6672458 Z" id="Shape"></path>
                    <path d="M156.889682,0 L156.889682,14.8743398 C159.375054,11.780568 162.426859,10.8566019 165.59041,10.8566019 C173.49736,10.8566019 177,16.0141505 177,23.8867962 L177,38 L170.110318,38 L170.110318,23.9398107 C170.110318,19.0549078 167.455402,16.991131 163.783217,16.991131 C159.714143,16.991131 156.889682,20.3045341 156.889682,24.3184853 L156.889682,38 L150,38 L150,0 L156.889682,0 Z" id="Shape"></path>
                    <polygon id="Shape" points="189.518447 0 189.518447 31.3769806 210 31.3769806 210 38 182 38 182 0"></polygon>
                    <path d="M238.432836,11.6735106 L245,11.6735106 L245,39.1744811 L238.547646,39.1744811 L238.210869,35.1473865 C236.637964,38.380735 232.31726,39.9448818 229.232683,39.9993546 C221.039036,40.0655001 215,35.0462228 215,25.3967595 C215,15.9146053 221.34137,10.9498008 229.420207,11.0003827 C233.124761,11.0003827 236.657099,12.7318388 238.22235,15.4632595 L238.432836,11.6735106 Z M221.827401,25.3967595 C221.827401,30.6417097 225.47455,33.7622216 230.017222,33.7622216 C240.790279,33.7622216 240.790279,17.08577 230.017222,17.08577 C225.47455,17.08577 221.827401,20.1557001 221.827401,25.3967595 Z" id="Shape"></path>
                    <path d="M258.83922,0 L258.83922,15.3701158 C260.468698,12.51129 265.009053,10.9405066 267.923754,10.9405066 C276.002295,10.9405066 282,15.8963283 282,25.4702533 C282,34.5886511 275.879893,40 267.755451,40 C264.393217,40 260.969782,38.8729629 258.83922,35.5507559 L258.391687,39.3795405 L252,39.3795405 L252,0 L258.83922,0 Z M259.290578,25.4466915 C259.290578,30.4574907 262.989417,33.6108384 267.323218,33.6108384 C271.699095,33.6108384 275.176081,30.2886315 275.176081,25.4466915 C275.176081,20.4358924 271.699095,17.341449 267.323218,17.341449 C262.989417,17.341449 259.290578,20.6047516 259.290578,25.4466915 Z" id="Shape"></path>
                    <path d="M305.830259,19.029819 C303.842195,17.2038072 301.567354,16.5977103 298.897225,16.5977103 C295.603162,16.5977103 293.785615,17.5937167 293.785615,19.3000532 C293.785615,21.0063898 295.432646,22.0680245 299.013486,22.2880724 C304.295613,22.6200745 311,23.782082 311,31.032082 C311,35.8499734 306.965742,40 298.955356,40 C294.52581,40 290.092389,39.2780884 286,35.1280618 L289.410324,30.3140309 C292.080453,33.0163738 295.944195,34.0780085 299.067741,34.1320554 C301.683615,34.1861022 304.125097,33.136049 304.125097,31.1440362 C304.125097,29.2639776 302.536196,28.2100639 298.556193,27.990016 C293.274066,27.603967 286.968842,25.7200479 286.968842,19.5201012 C286.968842,13.2120607 293.673229,11 298.78484,11 C303.16013,11 306.454193,11.8300053 309.694001,14.5979766 L305.830259,19.029819 Z" id="Shape"></path>
                </g>
            </g>
        </g>
    </g>
</svg>